<svg id="auth_frame" viewBox="0 0 696.47 161.01">
  <g id="email_group">
    <path d="M1686.27-204l-22.75,22.75v65.59h-673V-255.14l20.78-20.78h453.36l13,13h208.46Z"
      transform="translate(-990.18 276.29)" fill="#111" />
    <path d="M1206.62-244.57" transform="translate(-990.18 276.29)" fill="#4d4d4d" stroke="#4d4d4d"
      stroke-miterlimit="10" stroke-width="0.75" />
    <text transform="translate(33.68 29.32)" opacity="0.75" font-size="14" fill="#fff"
      font-family="ISL_FADETOBLAK, ISL_FADE TO BLAK">change the email for your <tspan x="242.2" y="0" fill="#c6b63f">
        3Dungeon </tspan>
      <tspan x="329" y="0">account</tspan>
    </text>
    <path d="M1320.61-243.92" transform="translate(-990.18 276.29)" fill="none" stroke="#fff" stroke-miterlimit="10"
      stroke-width="0.75" />
    <g opacity="0.75">
      <rect x="675.69" y="20.13" width="11.26" height="11.26" fill="none" stroke="#c6b63f" stroke-miterlimit="10"
        stroke-width="0.75" />
      <line x1="675.69" y1="20.13" x2="686.94" y2="31.38" fill="none" stroke="#c6b63f" stroke-miterlimit="10"
        stroke-width="0.75" />
    </g>
    <path d="M1334.32-275.21" transform="translate(-990.18 276.29)" fill="none" stroke="#4d4d4d" stroke-miterlimit="10"
      stroke-width="0.75" />
    <g id="field_email">
      <path id="label_active" d="M1195.55-220.93h-170.8l-4.3,4.3v29.36l4.3,4.29h170.8Z"
        transform="translate(-990.18 276.29)" fill="#181818" stroke="#181818" stroke-miterlimit="10" />
      <g id="label" opacity="0.75">
        <text transform="translate(46.72 78.05)" font-size="18" fill="#fff"
          font-family="ISL_FADETOBLAK, ISL_FADE TO BLAK">email addres</text>
      </g>
      <g id="text" opacity="0.5">
        <text transform="translate(230.58 79.62)" font-size="18" fill="#fff"
          font-family="ISL_FADETOBLAK, ISL_FADE TO BLAK">mega<tspan x="52.2" y="0"
            font-family="MyriadPro-Regular, Myriad Pro">@</tspan>
          <tspan x="65.47" y="0" letter-spacing="0em">gmail.com</tspan>
        </text>
      </g>
      <path id="input_active" d="M1195.55-183H1633l13.89-13.89v-24.06H1195.55Z" transform="translate(-990.18 276.29)"
        fill="none" stroke="#181818" stroke-miterlimit="10" />
    </g>
    <path d="M1206.62-220.93" transform="translate(-990.18 276.29)" fill="#4d4d4d" stroke="#4d4d4d"
      stroke-miterlimit="10" stroke-width="0.75" />
    <g id="field_password">
      <path id="label-2" data-name="label" d="M1195.55-165.56h-170.8l-4.3,4.3v29.35l4.3,4.3h170.8Z"
        transform="translate(-990.18 276.29)" fill="#181818" stroke="#181818" stroke-miterlimit="10" />
      <g opacity="0.75">
        <text transform="translate(66.52 133.42)" font-size="18" fill="#fff"
          font-family="ISL_FADETOBLAK, ISL_FADE TO BLAK">password</text>
      </g>
      <g id="text-2" data-name="text" opacity="0.75">
        <text transform="translate(230.58 134.99)" font-size="18" fill="#4d4d4d"
          font-family="ISL_FADETOBLAK, ISL_FADE TO BLAK">your current password</text>
      </g>
      <path id="input" d="M1195.55-127.61H1633l13.89-13.89v-24.06H1195.55Z" transform="translate(-990.18 276.29)"
        fill="none" stroke="#181818" stroke-miterlimit="10" />
      <g id="length_block">
        <polygon id="bg"
          points="587.8 117.97 582.71 123.06 582.71 141.44 639.22 141.44 647.81 132.85 647.81 117.97 587.8 117.97"
          fill="#181818" stroke="#181818" stroke-miterlimit="10" />
        <g opacity="0.75">
          <text transform="translate(588.55 133.1) scale(0.95 1)" font-size="14" fill="#4d4d4d"
            font-family="ISL_FADETOBLAK, ISL_FADE TO BLAK">120/128</text>
        </g>
      </g>
      <g id="btn_see">
        <polygon id="bg-2" data-name="bg"
          points="573.84 117.97 553.98 117.97 553.98 141.44 578.65 141.44 578.65 122.79 573.84 117.97" fill="#181818"
          stroke="#181818" stroke-miterlimit="10" />
        <g id="eye_active">
          <polygon points="566.32 122.51 557.86 136.19 574.77 136.19 566.32 122.51" fill="none" stroke="#c6b63f"
            stroke-miterlimit="10" stroke-width="0.75" opacity="0.75" />
          <circle cx="566.32" cy="131.47" r="2.12" fill="none" stroke="#c6b63f" stroke-miterlimit="10"
            stroke-width="0.75" opacity="0.75" />
        </g>
      </g>
    </g>
    <polyline points="71.97 5.64 22.68 5.64 5.58 22.74 5.58 36.7" fill="none" stroke="#4d4d4d" stroke-miterlimit="10"
      stroke-width="0.75" opacity="0.25" />
    <g id="border_hover">
      <path d="M1477.68-262.93l-13-13H1011.33l-20.78,20.78v139.48h673v-65.59L1686.27-204v-59Z"
        transform="translate(-990.18 276.29)" fill="none" stroke="#4d4d4d" stroke-miterlimit="10" stroke-width="0.75" />
      <polygon points="661.49 160.63 673.32 148.8 673.32 160.63 661.49 160.63" fill="#4d4d4d" />
    </g>
    <polyline points="671.54 88.85 691.09 69.29 691.09 41.93" fill="none" stroke="#4d4d4d" stroke-miterlimit="10"
      stroke-width="0.75" opacity="0.25" />
    <rect x="693.36" y="3.58" width="2.74" height="4.65" fill="none" stroke="#4d4d4d" stroke-miterlimit="10"
      stroke-width="0.75" opacity="0.5" />
    <rect x="688.36" y="3.58" width="2.74" height="4.65" fill="none" stroke="#4d4d4d" stroke-miterlimit="10"
      stroke-width="0.75" opacity="0.25" />
    <rect x="683.5" y="3.58" width="2.74" height="4.65" fill="none" stroke="#4d4d4d" stroke-miterlimit="10"
      stroke-width="0.75" opacity="0.1" />
    <rect x="678.58" y="3.58" width="2.74" height="4.65" fill="none" stroke="#c6b63f" stroke-miterlimit="10"
      stroke-width="0.75" opacity="0.75" />
    <line x1="684.1" y1="41.93" x2="684.1" y2="52.65" fill="none" stroke="#0a0a0a" stroke-miterlimit="10" />
    <line x1="686.86" y1="41.93" x2="686.86" y2="52.65" fill="none" stroke="#0a0a0a" stroke-miterlimit="10" />
    <g opacity="0.75">
      <text transform="translate(496.91 8.22) scale(0.95 1)" font-size="16" fill="#c6b63f"
        font-family="ISL_FADETOBLAK, ISL_FADE TO BLAK">ub-2</text>
    </g>
    <g>
      <line x1="81.33" y1="5.67" x2="90.74" y2="5.67" fill="none" stroke="#c6b63f" stroke-miterlimit="10"
        stroke-width="0.75" />
      <line x1="5.52" y1="46.14" x2="5.52" y2="55.55" fill="none" stroke="#c6b63f" stroke-miterlimit="10"
        stroke-width="0.75" />
      <polygon points="656.62 48.28 668.48 36.42 668.48 20.16 503.12 20.16 485.28 38 74.48 38 74.48 48.28 656.62 48.28"
        fill="#161616" stroke="#161616" stroke-miterlimit="10" />
      <rect x="67.75" y="37.98" width="2.86" height="10.3" fill="none" stroke="#4d4d4d" stroke-miterlimit="10"
        stroke-width="0.75" opacity="0.25" />
      <rect x="61.13" y="37.98" width="2.86" height="10.3" fill="none" stroke="#4d4d4d" stroke-miterlimit="10"
        stroke-width="0.75" opacity="0.5" />
      <rect x="54.51" y="37.98" width="2.86" height="10.3" fill="none" stroke="#4d4d4d" stroke-miterlimit="10"
        stroke-width="0.75" opacity="0.75" />
      <rect x="47.89" y="37.98" width="2.86" height="10.3" fill="none" stroke="#c6b63f" stroke-miterlimit="10"
        stroke-width="0.75" opacity="0.75" />
    </g>
  </g>
</svg>