<svg id="auth_frame" viewBox="0 0 694.91 81.23">
  <g id="location_group">
    <path
      d="M1518.11-302.06l-15.28,15.27H1440.3L1425-302l-298.52.05-15.27,15.27L955-287v19.81c1.56,1.55,2.5,2.49,4.11,4.11v29.3L955-229.67V-221l687.51.18v-47.6l7.41-10.81v-22.81Z"
      transform="translate(-954.95 302.08)" fill="#111" />
    <g opacity="0.75">
      <text transform="translate(12.52 9.19)" font-size="16" fill="#fff"
        font-family="ISL_FADETOBLAK, ISL_FADE TO BLAK">your location</text>
    </g>
    <g>
      <rect x="675.74" y="5.83" width="11.26" height="11.26" fill="none" stroke="#4d4d4d" stroke-miterlimit="10"
        stroke-width="0.75" />
      <line x1="675.74" y1="5.83" x2="686.99" y2="17.09" fill="none" stroke="#4d4d4d" stroke-miterlimit="10"
        stroke-width="0.75" />
    </g>
    <g>
      <line x1="635.71" y1="12.85" x2="635.71" y2="7.84" fill="none" stroke="#4d4d4d" stroke-miterlimit="10"
        opacity="0.5" />
      <line x1="648.08" y1="12.85" x2="648.08" y2="7.84" fill="none" stroke="#4d4d4d" stroke-miterlimit="10"
        opacity="0.25" />
      <line x1="642.48" y1="12.85" x2="642.48" y2="7.84" fill="none" stroke="#4d4d4d" stroke-miterlimit="10"
        stroke-width="0.75" opacity="0.75" />
      <rect x="637.19" y="7.84" width="3" height="5.02" fill="#4d4d4d" opacity="0.25" />
      <rect x="648.91" y="7.84" width="1.54" height="5.02" fill="#4d4d4d" opacity="0.1" />
      <rect x="657.7" y="7.84" width="1.54" height="5.02" fill="#4d4d4d" opacity="0.1" />
      <rect x="662.91" y="7.84" width="2.04" height="5.02" fill="#4d4d4d" opacity="0.1" />
      <rect x="666.06" y="7.84" width="2.04" height="5.02" fill="#4d4d4d" opacity="0.5" />
      <rect x="668.47" y="7.84" width="1.02" height="5.02" fill="#4d4d4d" opacity="0.25" />
      <rect x="655.26" y="7.84" width="1.02" height="5.02" fill="#4d4d4d" opacity="0.1" />
      <rect x="650.94" y="7.84" width="1.37" height="5.02" fill="#4d4d4d" opacity="0.5" />
      <rect x="659.72" y="7.84" width="1" height="5.02" fill="#fff" opacity="0.5" />
      <rect x="661.07" y="7.84" width="1" height="5.02" fill="#4d4d4d" opacity="0.5" />
      <rect x="643.9" y="7.84" width="3" height="5.02" fill="#4d4d4d" opacity="0.1" />
      <rect x="640.88" y="7.84" width="0.75" height="5.02" fill="#fff" opacity="0.5" />
    </g>
    <g opacity="0.75">
      <text transform="translate(496.97 9.19) scale(0.95 1)" font-size="16" fill="#c6b63f"
        font-family="ISL_FADETOBLAK, ISL_FADE TO BLAK">ub-3</text>
    </g>
    <polygon points="162.17 19.13 175.8 5.5 466.7 5.46 480.31 19.08 480.31 26.27 47.69 26.27 47.31 18.89 162.17 19.13"
      fill="#161616" />
    <rect x="30.67" y="18.88" width="2.1" height="7.38" fill="#4d4d4d" opacity="0.75" />
    <rect x="34.43" y="18.88" width="2.1" height="7.38" fill="#4d4d4d" opacity="0.5" />
    <rect x="38.19" y="18.88" width="2.1" height="7.38" fill="#4d4d4d" opacity="0.25" />
    <rect x="41.96" y="18.88" width="2.1" height="7.38" fill="#4d4d4d" opacity="0.1" />
    <line x1="6" y1="19.41" x2="6" y2="26.27" fill="none" stroke="#0a0a0a" stroke-miterlimit="10" />
    <line x1="9" y1="19.41" x2="9" y2="26.27" fill="none" stroke="#0a0a0a" stroke-miterlimit="10" />
    <g id="field_location">
      <g opacity="0.5">
        <text transform="translate(66.57 57.37)" font-size="18" fill="#fff"
          font-family="ISL_FADETOBLAK, ISL_FADE TO BLAK">United states america, los-angeles</text>
      </g>
      <path id="input" d="M1597.8-229.46l13.88-13.88v-24.07H989.57l-4.3,4.3v29.36l4.3,4.29Z"
        transform="translate(-954.95 302.08)" fill="none" stroke="#181818" stroke-miterlimit="10" />
      <g id="length_block">
        <polygon id="bg" points="587.85 41.92 582.76 47 582.76 65.39 639.27 65.39 647.86 56.8 647.86 41.92 587.85 41.92"
          fill="#181818" stroke="#181818" stroke-miterlimit="10" />
        <g opacity="0.75">
          <text transform="translate(592.49 57.05) scale(0.95 1)" font-size="14" fill="#4d4d4d"
            font-family="ISL_FADETOBLAK, ISL_FADE TO BLAK">29/64</text>
        </g>
      </g>
    </g>
    <polyline points="516.64 19.71 550.77 19.71 564 6.47 550.77 19.71" fill="none" stroke="#4d4d4d"
      stroke-miterlimit="10" opacity="0.25" />
    <polygon
      points="556.5 19.71 569.73 6.47 622.47 6.47 632.72 16.72 669.49 16.72 669.49 21.47 665.38 25.58 556.5 25.58 556.5 19.71"
      fill="#161616" />
    <polyline points="662.91 55.74 662.91 34.68 675.81 21.78 686.99 21.78" fill="none" stroke="#c6b63f"
      stroke-miterlimit="10" stroke-width="0.75" opacity="0.75" />
    <rect x="485.38" y="19.71" width="25.59" height="5.88" fill="none" stroke="#4d4d4d" stroke-miterlimit="10"
      stroke-width="0.75" opacity="0.5" />
    <line x1="516.64" y1="25.58" x2="550.85" y2="25.58" fill="none" stroke="#c6b63f" stroke-miterlimit="10"
      opacity="0.75" />
  </g>
</svg>