<svg id="auth_frame" xmlns="http://www.w3.org/2000/svg" viewBox="0 0 696.47 181.21">
  <g id="password_group">
    <path d="M1227.45-256.53l-22.76,22.75V-148h-673V-307.67l20.78-20.78h453.36c4.93,4.94,7.89,7.9,13,13h208.45Z" transform="translate(-531.36 328.82)" fill="#111"/>
    <path d="M747.8-297.1" transform="translate(-531.36 328.82)" fill="#4d4d4d" stroke="#4d4d4d" stroke-miterlimit="10" stroke-width="0.75"/>
    <text transform="translate(33.68 29.32)" opacity="0.75" font-size="14" fill="#fff" font-family="ISL_FADETOBLAK, ISL_FADE TO BLAK">change the password for your <tspan x="278.6" y="0" fill="#c6b63f">3Dungeon </tspan><tspan x="365.4" y="0">account</tspan></text>
    <path d="M861.79-296.45" transform="translate(-531.36 328.82)" fill="none" stroke="#fff" stroke-miterlimit="10" stroke-width="0.75"/>
    <g opacity="0.75">
      <rect x="675.69" y="20.13" width="11.26" height="11.26" fill="none" stroke="#c6b63f" stroke-miterlimit="10" stroke-width="0.75"/>
      <line x1="675.69" y1="20.13" x2="686.94" y2="31.38" fill="none" stroke="#c6b63f" stroke-miterlimit="10" stroke-width="0.75"/>
    </g>
    <path d="M875.49-327.74" transform="translate(-531.36 328.82)" fill="none" stroke="#4d4d4d" stroke-miterlimit="10" stroke-width="0.75"/>
    <g id="field_password">
      <path data-name="label" d="M736.72-273.46H565.92l-4.3,4.3v29.35l4.3,4.3h170.8Z" transform="translate(-531.36 328.82)" fill="#181818" stroke="#181818" stroke-miterlimit="10"/>
      <g id="label" opacity="0.75">
        <text transform="translate(42.05 78.05)" font-size="18" fill="#fff" font-family="ISL_FADETOBLAK, ISL_FADE TO BLAK">new password</text>
      </g>
      <g id="text">
        <text transform="translate(224.76 77.05)" font-size="18" fill="#4d4d4d" font-family="ISL_FADETOBLAK, ISL_FADE TO BLAK">your password</text>
      </g>
      <path data-name="input" d="M736.72-235.51h437.43L1188-249.4v-24.06H736.72Z" transform="translate(-531.36 328.82)" fill="none" stroke="#181818" stroke-miterlimit="10"/>
    </g>
    <path d="M747.8-273.46" transform="translate(-531.36 328.82)" fill="#4d4d4d" stroke="#4d4d4d" stroke-miterlimit="10" stroke-width="0.75"/>
    <g id="field_password_2">
      <path data-name="label" d="M736.72-218.09H565.92l-4.3,4.3v48.24l4.3,4.3h170.8Z" transform="translate(-531.36 328.82)" fill="#181818" stroke="#181818" stroke-miterlimit="10"/>
      <g opacity="0.75">
        <text transform="translate(46.72 133.42)" font-size="18" fill="#fff" font-family="ISL_FADETOBLAK, ISL_FADE TO BLAK">confirm new <tspan x="0" y="21.6">passord</tspan></text>
      </g>
      <g data-name="text" opacity="0.75">
        <text transform="translate(224.76 141.87)" font-size="18" fill="#4d4d4d" font-family="ISL_FADETOBLAK, ISL_FADE TO BLAK">your password</text>
      </g>
      <path data-name="input" d="M736.72-161.25h437.43L1188-175.14v-43H736.72Z" transform="translate(-531.36 328.82)" fill="none" stroke="#181818" stroke-miterlimit="10"/>
      <g id="length_block">
        <polygon id="bg" points="587.8 118.04 582.71 123.12 582.71 141.51 639.22 141.51 647.81 132.92 647.81 118.04 587.8 118.04" fill="#181818" stroke="#181818" stroke-miterlimit="10"/>
        <g opacity="0.75">
          <text transform="translate(588.55 133.17) scale(0.95 1)" font-size="14" fill="#4d4d4d" font-family="ISL_FADETOBLAK, ISL_FADE TO BLAK">120/128</text>
        </g>
      </g>
      <g id="btn_see">
        <polygon id="bg-2" data-name="bg" points="573.84 118.04 553.98 118.04 553.98 141.51 578.65 141.51 578.65 122.86 573.84 118.04" fill="#181818" stroke="#181818" stroke-miterlimit="10"/>
        <g id="eye">
          <g>
            <polygon points="566.32 122.58 557.86 136.26 574.77 136.26 566.32 122.58" fill="none" stroke="#4d4d4d" stroke-miterlimit="10" stroke-width="0.75" opacity="0.75"/>
            <circle cx="566.32" cy="131.54" r="2.12" fill="none" stroke="#4d4d4d" stroke-miterlimit="10" stroke-width="0.75" opacity="0.75"/>
          </g>
        </g>
      </g>
    </g>
    <polyline points="71.97 5.64 22.68 5.64 5.58 22.74 5.58 36.7" fill="none" stroke="#4d4d4d" stroke-miterlimit="10" stroke-width="0.75" opacity="0.25"/>
    <g id="border_hover">
      <path d="M1018.86-315.46c-5.1-5.09-8.06-8.05-13-13H552.51l-20.78,20.78V-148h673v-85.79l22.76-22.75v-59Z" transform="translate(-531.36 328.82)" fill="none" stroke="#4d4d4d" stroke-miterlimit="10" stroke-width="0.75"/>
      <polygon points="661.49 180.83 673.32 169 673.32 180.83 661.49 180.83" fill="#4d4d4d"/>
    </g>
    <polyline points="671.54 88.85 691.09 69.29 691.09 41.93" fill="none" stroke="#4d4d4d" stroke-miterlimit="10" stroke-width="0.75" opacity="0.25"/>
    <rect x="693.36" y="3.58" width="2.74" height="4.65" fill="none" stroke="#4d4d4d" stroke-miterlimit="10" stroke-width="0.75" opacity="0.5"/>
    <rect x="688.36" y="3.58" width="2.74" height="4.65" fill="none" stroke="#4d4d4d" stroke-miterlimit="10" stroke-width="0.75" opacity="0.25"/>
    <rect x="683.5" y="3.58" width="2.74" height="4.65" fill="none" stroke="#4d4d4d" stroke-miterlimit="10" stroke-width="0.75" opacity="0.1"/>
    <rect x="678.58" y="3.58" width="2.74" height="4.65" fill="none" stroke="#c6b63f" stroke-miterlimit="10" stroke-width="0.75" opacity="0.75"/>
    <line x1="684.1" y1="41.93" x2="684.1" y2="52.65" fill="none" stroke="#0a0a0a" stroke-miterlimit="10"/>
    <line x1="686.86" y1="41.93" x2="686.86" y2="52.65" fill="none" stroke="#0a0a0a" stroke-miterlimit="10"/>
    <g opacity="0.75">
      <text transform="translate(496.91 8.03) scale(0.95 1)" font-size="16" fill="#c6b63f" font-family="ISL_FADETOBLAK, ISL_FADE TO BLAK">ub-1</text>
    </g>
    <g id="length_block-2" data-name="length_block">
      <polygon id="bg-3" data-name="bg" points="587.8 62.59 582.71 67.67 582.71 86.06 639.22 86.06 647.81 77.47 647.81 62.59 587.8 62.59" fill="#181818" stroke="#181818" stroke-miterlimit="10"/>
      <g opacity="0.75">
        <text transform="translate(588.55 77.72) scale(0.95 1)" font-size="14" fill="#4d4d4d" font-family="ISL_FADETOBLAK, ISL_FADE TO BLAK">120/128</text>
      </g>
    </g>
    <g id="btn_see-2" data-name="btn_see">
      <polygon id="bg-4" data-name="bg" points="573.84 62.59 553.98 62.59 553.98 86.06 578.65 86.06 578.65 67.41 573.84 62.59" fill="#181818" stroke="#181818" stroke-miterlimit="10"/>
      <g id="eye-2" data-name="eye">
        <polygon points="566.32 67.13 557.86 80.82 574.77 80.82 566.32 67.13" fill="none" stroke="#4d4d4d" stroke-miterlimit="10" stroke-width="0.75" opacity="0.75"/>
        <circle cx="566.32" cy="76.09" r="2.12" fill="none" stroke="#4d4d4d" stroke-miterlimit="10" stroke-width="0.75" opacity="0.75"/>
      </g>
    </g>
    <g>
      <line x1="81.39" y1="5.64" x2="90.8" y2="5.64" fill="none" stroke="#c6b63f" stroke-miterlimit="10" stroke-width="0.75"/>
      <line x1="5.58" y1="46.11" x2="5.58" y2="55.52" fill="none" stroke="#c6b63f" stroke-miterlimit="10" stroke-width="0.75"/>
      <polygon points="656.68 48.24 668.53 36.39 668.53 20.13 503.18 20.13 485.34 37.97 74.54 37.97 74.54 48.24 656.68 48.24" fill="#161616" stroke="#161616" stroke-miterlimit="10"/>
      <rect x="67.8" y="37.94" width="2.86" height="10.3" fill="none" stroke="#4d4d4d" stroke-miterlimit="10" stroke-width="0.75" opacity="0.25"/>
      <rect x="61.18" y="37.94" width="2.86" height="10.3" fill="none" stroke="#4d4d4d" stroke-miterlimit="10" stroke-width="0.75" opacity="0.5"/>
      <rect x="54.57" y="37.94" width="2.86" height="10.3" fill="none" stroke="#4d4d4d" stroke-miterlimit="10" stroke-width="0.75" opacity="0.75"/>
      <rect x="47.95" y="37.94" width="2.86" height="10.3" fill="none" stroke="#c6b63f" stroke-miterlimit="10" stroke-width="0.75" opacity="0.75"/>
    </g>
  </g>
</svg>
