<svg id="auth_frame" viewBox="0 0 596.86 137.5">
  <g id="save_group">
    <path d="M1247-376.69l-15.19,15.18h-61.5l-15.19-15.18H763L732.22-346v95.6H837.89l11.17,11.17h480V-376.69Z"
      transform="translate(-732.22 376.69)" fill="#111" />
    <text transform="translate(138.74 115.56)" font-size="18" fill="#4d4d4d"
      font-family="ISL_FADETOBLAK, ISL_FADE TO BLAK">created</text>
    <text transform="translate(280.31 115.56)" font-size="18" fill="#4d4d4d"
      font-family="ISL_FADETOBLAK, ISL_FADE TO BLAK">August 24th 2023</text>
    <g id="btn_save">
      <path id="bg" d="M1030.65-343.95H762.81l-10.59,10.59v23.17l10.59,10.6h267.84"
        transform="translate(-732.22 376.69)" fill="none" stroke="#c6b63f" stroke-miterlimit="10" stroke-width="0.75" />
      <text transform="translate(82.71 59.62)" font-size="18" fill="#c6b63f"
        font-family="ISL_FADETOBLAK, ISL_FADE TO BLAK">save settings</text>
    </g>
    <g id="btn_cancel">
      <path id="bg-2" data-name="bg"
        d="M1030.65-299.59h267.83l10.59-10.6v-23.17c-4.13-4.14-6.45-6.46-10.59-10.59H1030.65"
        transform="translate(-732.22 376.69)" fill="#181818" stroke="#181818" stroke-miterlimit="10"
        stroke-width="0.75" />
      <text transform="translate(399.84 59.62)" font-size="18" fill="#fff"
        font-family="ISL_FADETOBLAK, ISL_FADE TO BLAK">cancel</text>
    </g>
    <g opacity="0.75">
      <text transform="translate(451.28 8.4)" font-size="16" fill="#c6b63f"
        font-family="ISL_FADETOBLAK, ISL_FADE TO BLAK">ub-6</text>
    </g>
    <g>
      <rect x="576.77" y="9" width="11.26" height="11.26" fill="none" stroke="#4d4d4d" stroke-miterlimit="10"
        stroke-width="0.75" />
      <line x1="576.77" y1="9" x2="588.03" y2="20.25" fill="none" stroke="#4d4d4d" stroke-miterlimit="10"
        stroke-width="0.75" />
    </g>
    <g>
      <line x1="536.74" y1="16.02" x2="536.74" y2="11" fill="none" stroke="#4d4d4d" stroke-miterlimit="10"
        opacity="0.5" />
      <line x1="549.11" y1="16.02" x2="549.11" y2="11" fill="none" stroke="#4d4d4d" stroke-miterlimit="10"
        opacity="0.25" />
      <line x1="543.52" y1="16.02" x2="543.52" y2="11" fill="none" stroke="#4d4d4d" stroke-miterlimit="10"
        stroke-width="0.75" opacity="0.75" />
      <rect x="538.22" y="11" width="3" height="5.02" fill="#4d4d4d" opacity="0.25" />
      <rect x="549.94" y="11" width="1.54" height="5.02" fill="#4d4d4d" opacity="0.1" />
      <rect x="558.74" y="11" width="1.54" height="5.02" fill="#4d4d4d" opacity="0.1" />
      <rect x="563.94" y="11" width="2.04" height="5.02" fill="#4d4d4d" opacity="0.1" />
      <rect x="567.09" y="11" width="2.04" height="5.02" fill="#4d4d4d" opacity="0.5" />
      <rect x="569.5" y="11" width="1.02" height="5.02" fill="#4d4d4d" opacity="0.25" />
      <rect x="556.29" y="11" width="1.02" height="5.02" fill="#4d4d4d" opacity="0.1" />
      <rect x="551.97" y="11" width="1.37" height="5.02" fill="#4d4d4d" opacity="0.5" />
      <rect x="560.75" y="11" width="1" height="5.02" fill="#fff" opacity="0.5" />
      <rect x="562.1" y="11" width="1" height="5.02" fill="#4d4d4d" opacity="0.5" />
      <rect x="544.94" y="11" width="3" height="5.02" fill="#4d4d4d" opacity="0.1" />
      <rect x="541.92" y="11" width="0.75" height="5.02" fill="#fff" opacity="0.5" />
    </g>
    <polyline points="593.83 103.42 593.83 121.78 582.29 133.32 506.25 133.32" fill="none" stroke="#4d4d4d"
      stroke-miterlimit="10" opacity="0.25" />
    <polygon points="420.03 5.66 432.62 18.25 432.62 24.01 31.44 24.01 31.44 11.97 38.25 5.17 420.03 5.66" fill="none"
      stroke="#4d4d4d" stroke-miterlimit="10" stroke-width="0.75" opacity="0.1" />
    <rect x="437.64" y="19.18" width="14.68" height="4.83" fill="none" stroke="#4d4d4d" stroke-miterlimit="10"
      stroke-width="0.75" opacity="0.1" />
    <rect x="457.41" y="19.18" width="14.68" height="4.83" fill="none" stroke="#4d4d4d" stroke-miterlimit="10"
      stroke-width="0.75" opacity="0.25" />
    <rect x="477.17" y="19.18" width="14.68" height="4.83" fill="none" stroke="#4d4d4d" stroke-miterlimit="10"
      stroke-width="0.75" opacity="0.5" />
    <rect x="497" y="18.85" width="2" height="5.5" fill="#c6b63f" />
    <polyline points="4.86 44.53 4.86 33.65 23.73 14.77" fill="none" stroke="#4d4d4d" stroke-miterlimit="10"
      opacity="0.25" />
    <line x1="4.86" y1="52.6" x2="14.29" y2="52.6" fill="none" stroke="#0a0a0a" stroke-miterlimit="10" />
    <line x1="4.86" y1="55.6" x2="14.29" y2="55.6" fill="none" stroke="#0a0a0a" stroke-miterlimit="10" />
    <polyline points="570.52 20.25 508.38 20.25 504.15 16.02 516.63 3.53 570.52 3.53" fill="none" stroke="#4d4d4d"
      stroke-miterlimit="10" opacity="0.1" />
    <polygon points="8.78 90.6 8.86 117.78 47.49 117.78 74.88 91.09 136.38 91.09 136.38 85.31 13.56 85.31 8.78 90.6"
      fill="#161616" stroke="#161616" stroke-miterlimit="10" stroke-width="0.75" />
    <rect x="140.86" y="85.3" width="29.73" height="5.79" fill="none" stroke="#4d4d4d" stroke-miterlimit="10"
      stroke-width="0.75" opacity="0.1" />
    <rect x="174.92" y="85.3" width="29.73" height="5.79" fill="none" stroke="#4d4d4d" stroke-miterlimit="10"
      stroke-width="0.75" opacity="0.25" />
    <rect x="208.98" y="85.3" width="29.73" height="5.79" fill="none" stroke="#4d4d4d" stroke-miterlimit="10"
      stroke-width="0.75" opacity="0.5" />
    <rect x="243.03" y="85.3" width="29.73" height="5.79" fill="none" stroke="#c6b63f" stroke-miterlimit="10"
      stroke-width="0.75" opacity="0.75" />
    <polyline points="57.21 115.56 77.57 95.2 124.27 95.2" fill="none" stroke="#4d4d4d" stroke-miterlimit="10"
      stroke-width="0.75" opacity="0.5" />
    <polygon points="567.09 94.25 365.33 94.25 356.62 85.54 567.09 85.54 567.09 94.25" fill="#161616" stroke="#161616"
      stroke-miterlimit="10" stroke-width="0.75" />
    <line x1="567.09" y1="98.3" x2="506.25" y2="98.3" fill="#161616" stroke="#161616" stroke-miterlimit="10"
      stroke-width="0.75" />
  </g>
</svg>