<svg xmlns="http://www.w3.org/2000/svg" xmlns:xlink="http://www.w3.org/1999/xlink" viewBox="0 0 1549.01 674.02">
  <defs>
    <pattern id="Новый_узор_3" data-name="Новый узор 3" width="120" height="120"
      patternTransform="translate(-78.34 -225.37)" patternUnits="userSpaceOnUse" viewBox="0 0 120 120">
      <rect width="120" height="120" fill="none" />
      <line x1="156.9" y1="113.1" x2="103.1" y2="166.9" fill="none" stroke="#2e2e2e" stroke-miterlimit="10"
        stroke-width="5" />
      <g>
        <line x1="36.9" y1="113.1" x2="-16.9" y2="166.9" fill="none" stroke="#2e2e2e" stroke-miterlimit="10"
          stroke-width="5" />
        <line x1="56.9" y1="113.1" x2="3.1" y2="166.9" fill="none" stroke="#2e2e2e" stroke-miterlimit="10"
          stroke-width="5" />
        <line x1="76.9" y1="113.1" x2="23.1" y2="166.9" fill="none" stroke="#2e2e2e" stroke-miterlimit="10"
          stroke-width="5" />
        <line x1="96.9" y1="113.1" x2="43.1" y2="166.9" fill="none" stroke="#2e2e2e" stroke-miterlimit="10"
          stroke-width="5" />
        <line x1="116.9" y1="113.1" x2="63.1" y2="166.9" fill="none" stroke="#2e2e2e" stroke-miterlimit="10"
          stroke-width="5" />
        <line x1="136.9" y1="113.1" x2="83.1" y2="166.9" fill="none" stroke="#2e2e2e" stroke-miterlimit="10"
          stroke-width="5" />
      </g>
      <line x1="16.9" y1="113.1" x2="-36.9" y2="166.9" fill="none" stroke="#2e2e2e" stroke-miterlimit="10"
        stroke-width="5" />
      <line x1="156.9" y1="73.1" x2="103.1" y2="126.9" fill="none" stroke="#2e2e2e" stroke-miterlimit="10"
        stroke-width="5" />
      <g>
        <line x1="36.9" y1="73.1" x2="-16.9" y2="126.9" fill="none" stroke="#2e2e2e" stroke-miterlimit="10"
          stroke-width="5" />
        <line x1="56.9" y1="73.1" x2="3.1" y2="126.9" fill="none" stroke="#2e2e2e" stroke-miterlimit="10"
          stroke-width="5" />
        <line x1="76.9" y1="73.1" x2="23.1" y2="126.9" fill="none" stroke="#2e2e2e" stroke-miterlimit="10"
          stroke-width="5" />
        <line x1="96.9" y1="73.1" x2="43.1" y2="126.9" fill="none" stroke="#2e2e2e" stroke-miterlimit="10"
          stroke-width="5" />
        <line x1="116.9" y1="73.1" x2="63.1" y2="126.9" fill="none" stroke="#2e2e2e" stroke-miterlimit="10"
          stroke-width="5" />
        <line x1="136.9" y1="73.1" x2="83.1" y2="126.9" fill="none" stroke="#2e2e2e" stroke-miterlimit="10"
          stroke-width="5" />
      </g>
      <line x1="16.9" y1="73.1" x2="-36.9" y2="126.9" fill="none" stroke="#2e2e2e" stroke-miterlimit="10"
        stroke-width="5" />
      <line x1="156.9" y1="33.1" x2="103.1" y2="86.9" fill="none" stroke="#2e2e2e" stroke-miterlimit="10"
        stroke-width="5" />
      <g>
        <line x1="36.9" y1="33.1" x2="-16.9" y2="86.9" fill="none" stroke="#2e2e2e" stroke-miterlimit="10"
          stroke-width="5" />
        <line x1="56.9" y1="33.1" x2="3.1" y2="86.9" fill="none" stroke="#2e2e2e" stroke-miterlimit="10"
          stroke-width="5" />
        <line x1="76.9" y1="33.1" x2="23.1" y2="86.9" fill="none" stroke="#2e2e2e" stroke-miterlimit="10"
          stroke-width="5" />
        <line x1="96.9" y1="33.1" x2="43.1" y2="86.9" fill="none" stroke="#2e2e2e" stroke-miterlimit="10"
          stroke-width="5" />
        <line x1="116.9" y1="33.1" x2="63.1" y2="86.9" fill="none" stroke="#2e2e2e" stroke-miterlimit="10"
          stroke-width="5" />
        <line x1="136.9" y1="33.1" x2="83.1" y2="86.9" fill="none" stroke="#2e2e2e" stroke-miterlimit="10"
          stroke-width="5" />
      </g>
      <line x1="16.9" y1="33.1" x2="-36.9" y2="86.9" fill="none" stroke="#2e2e2e" stroke-miterlimit="10"
        stroke-width="5" />
      <line x1="156.9" y1="-6.9" x2="103.1" y2="46.9" fill="none" stroke="#2e2e2e" stroke-miterlimit="10"
        stroke-width="5" />
      <g>
        <line x1="36.9" y1="-6.9" x2="-16.9" y2="46.9" fill="none" stroke="#2e2e2e" stroke-miterlimit="10"
          stroke-width="5" />
        <line x1="56.9" y1="-6.9" x2="3.1" y2="46.9" fill="none" stroke="#2e2e2e" stroke-miterlimit="10"
          stroke-width="5" />
        <line x1="76.9" y1="-6.9" x2="23.1" y2="46.9" fill="none" stroke="#2e2e2e" stroke-miterlimit="10"
          stroke-width="5" />
        <line x1="96.9" y1="-6.9" x2="43.1" y2="46.9" fill="none" stroke="#2e2e2e" stroke-miterlimit="10"
          stroke-width="5" />
        <line x1="116.9" y1="-6.9" x2="63.1" y2="46.9" fill="none" stroke="#2e2e2e" stroke-miterlimit="10"
          stroke-width="5" />
        <line x1="136.9" y1="-6.9" x2="83.1" y2="46.9" fill="none" stroke="#2e2e2e" stroke-miterlimit="10"
          stroke-width="5" />
      </g>
      <line x1="16.9" y1="-6.9" x2="-36.9" y2="46.9" fill="none" stroke="#2e2e2e" stroke-miterlimit="10"
        stroke-width="5" />
      <line x1="156.9" y1="-46.9" x2="103.1" y2="6.9" fill="none" stroke="#2e2e2e" stroke-miterlimit="10"
        stroke-width="5" />
      <g>
        <line x1="36.9" y1="-46.9" x2="-16.9" y2="6.9" fill="none" stroke="#2e2e2e" stroke-miterlimit="10"
          stroke-width="5" />
        <line x1="56.9" y1="-46.9" x2="3.1" y2="6.9" fill="none" stroke="#2e2e2e" stroke-miterlimit="10"
          stroke-width="5" />
        <line x1="76.9" y1="-46.9" x2="23.1" y2="6.9" fill="none" stroke="#2e2e2e" stroke-miterlimit="10"
          stroke-width="5" />
        <line x1="96.9" y1="-46.9" x2="43.1" y2="6.9" fill="none" stroke="#2e2e2e" stroke-miterlimit="10"
          stroke-width="5" />
        <line x1="116.9" y1="-46.9" x2="63.1" y2="6.9" fill="none" stroke="#2e2e2e" stroke-miterlimit="10"
          stroke-width="5" />
        <line x1="136.9" y1="-46.9" x2="83.1" y2="6.9" fill="none" stroke="#2e2e2e" stroke-miterlimit="10"
          stroke-width="5" />
      </g>
      <line x1="16.9" y1="-46.9" x2="-36.9" y2="6.9" fill="none" stroke="#2e2e2e" stroke-miterlimit="10"
        stroke-width="5" />
    </pattern>
    <pattern id="Новый_узор_3-3" data-name="Новый узор 3" width="120" height="120"
      patternTransform="translate(-38.34 -135.37)" patternUnits="userSpaceOnUse" viewBox="0 0 120 120">
      <rect width="120" height="120" fill="none" />
      <line x1="156.9" y1="113.1" x2="103.1" y2="166.9" fill="none" stroke="#2e2e2e" stroke-miterlimit="10"
        stroke-width="5" />
      <g>
        <line x1="36.9" y1="113.1" x2="-16.9" y2="166.9" fill="none" stroke="#2e2e2e" stroke-miterlimit="10"
          stroke-width="5" />
        <line x1="56.9" y1="113.1" x2="3.1" y2="166.9" fill="none" stroke="#2e2e2e" stroke-miterlimit="10"
          stroke-width="5" />
        <line x1="76.9" y1="113.1" x2="23.1" y2="166.9" fill="none" stroke="#2e2e2e" stroke-miterlimit="10"
          stroke-width="5" />
        <line x1="96.9" y1="113.1" x2="43.1" y2="166.9" fill="none" stroke="#2e2e2e" stroke-miterlimit="10"
          stroke-width="5" />
        <line x1="116.9" y1="113.1" x2="63.1" y2="166.9" fill="none" stroke="#2e2e2e" stroke-miterlimit="10"
          stroke-width="5" />
        <line x1="136.9" y1="113.1" x2="83.1" y2="166.9" fill="none" stroke="#2e2e2e" stroke-miterlimit="10"
          stroke-width="5" />
      </g>
      <line x1="16.9" y1="113.1" x2="-36.9" y2="166.9" fill="none" stroke="#2e2e2e" stroke-miterlimit="10"
        stroke-width="5" />
      <line x1="156.9" y1="73.1" x2="103.1" y2="126.9" fill="none" stroke="#2e2e2e" stroke-miterlimit="10"
        stroke-width="5" />
      <g>
        <line x1="36.9" y1="73.1" x2="-16.9" y2="126.9" fill="none" stroke="#2e2e2e" stroke-miterlimit="10"
          stroke-width="5" />
        <line x1="56.9" y1="73.1" x2="3.1" y2="126.9" fill="none" stroke="#2e2e2e" stroke-miterlimit="10"
          stroke-width="5" />
        <line x1="76.9" y1="73.1" x2="23.1" y2="126.9" fill="none" stroke="#2e2e2e" stroke-miterlimit="10"
          stroke-width="5" />
        <line x1="96.9" y1="73.1" x2="43.1" y2="126.9" fill="none" stroke="#2e2e2e" stroke-miterlimit="10"
          stroke-width="5" />
        <line x1="116.9" y1="73.1" x2="63.1" y2="126.9" fill="none" stroke="#2e2e2e" stroke-miterlimit="10"
          stroke-width="5" />
        <line x1="136.9" y1="73.1" x2="83.1" y2="126.9" fill="none" stroke="#2e2e2e" stroke-miterlimit="10"
          stroke-width="5" />
      </g>
      <line x1="16.9" y1="73.1" x2="-36.9" y2="126.9" fill="none" stroke="#2e2e2e" stroke-miterlimit="10"
        stroke-width="5" />
      <line x1="156.9" y1="33.1" x2="103.1" y2="86.9" fill="none" stroke="#2e2e2e" stroke-miterlimit="10"
        stroke-width="5" />
      <g>
        <line x1="36.9" y1="33.1" x2="-16.9" y2="86.9" fill="none" stroke="#2e2e2e" stroke-miterlimit="10"
          stroke-width="5" />
        <line x1="56.9" y1="33.1" x2="3.1" y2="86.9" fill="none" stroke="#2e2e2e" stroke-miterlimit="10"
          stroke-width="5" />
        <line x1="76.9" y1="33.1" x2="23.1" y2="86.9" fill="none" stroke="#2e2e2e" stroke-miterlimit="10"
          stroke-width="5" />
        <line x1="96.9" y1="33.1" x2="43.1" y2="86.9" fill="none" stroke="#2e2e2e" stroke-miterlimit="10"
          stroke-width="5" />
        <line x1="116.9" y1="33.1" x2="63.1" y2="86.9" fill="none" stroke="#2e2e2e" stroke-miterlimit="10"
          stroke-width="5" />
        <line x1="136.9" y1="33.1" x2="83.1" y2="86.9" fill="none" stroke="#2e2e2e" stroke-miterlimit="10"
          stroke-width="5" />
      </g>
      <line x1="16.9" y1="33.1" x2="-36.9" y2="86.9" fill="none" stroke="#2e2e2e" stroke-miterlimit="10"
        stroke-width="5" />
      <line x1="156.9" y1="-6.9" x2="103.1" y2="46.9" fill="none" stroke="#2e2e2e" stroke-miterlimit="10"
        stroke-width="5" />
      <g>
        <line x1="36.9" y1="-6.9" x2="-16.9" y2="46.9" fill="none" stroke="#2e2e2e" stroke-miterlimit="10"
          stroke-width="5" />
        <line x1="56.9" y1="-6.9" x2="3.1" y2="46.9" fill="none" stroke="#2e2e2e" stroke-miterlimit="10"
          stroke-width="5" />
        <line x1="76.9" y1="-6.9" x2="23.1" y2="46.9" fill="none" stroke="#2e2e2e" stroke-miterlimit="10"
          stroke-width="5" />
        <line x1="96.9" y1="-6.9" x2="43.1" y2="46.9" fill="none" stroke="#2e2e2e" stroke-miterlimit="10"
          stroke-width="5" />
        <line x1="116.9" y1="-6.9" x2="63.1" y2="46.9" fill="none" stroke="#2e2e2e" stroke-miterlimit="10"
          stroke-width="5" />
        <line x1="136.9" y1="-6.9" x2="83.1" y2="46.9" fill="none" stroke="#2e2e2e" stroke-miterlimit="10"
          stroke-width="5" />
      </g>
      <line x1="16.9" y1="-6.9" x2="-36.9" y2="46.9" fill="none" stroke="#2e2e2e" stroke-miterlimit="10"
        stroke-width="5" />
      <line x1="156.9" y1="-46.9" x2="103.1" y2="6.9" fill="none" stroke="#2e2e2e" stroke-miterlimit="10"
        stroke-width="5" />
      <g>
        <line x1="36.9" y1="-46.9" x2="-16.9" y2="6.9" fill="none" stroke="#2e2e2e" stroke-miterlimit="10"
          stroke-width="5" />
        <line x1="56.9" y1="-46.9" x2="3.1" y2="6.9" fill="none" stroke="#2e2e2e" stroke-miterlimit="10"
          stroke-width="5" />
        <line x1="76.9" y1="-46.9" x2="23.1" y2="6.9" fill="none" stroke="#2e2e2e" stroke-miterlimit="10"
          stroke-width="5" />
        <line x1="96.9" y1="-46.9" x2="43.1" y2="6.9" fill="none" stroke="#2e2e2e" stroke-miterlimit="10"
          stroke-width="5" />
        <line x1="116.9" y1="-46.9" x2="63.1" y2="6.9" fill="none" stroke="#2e2e2e" stroke-miterlimit="10"
          stroke-width="5" />
        <line x1="136.9" y1="-46.9" x2="83.1" y2="6.9" fill="none" stroke="#2e2e2e" stroke-miterlimit="10"
          stroke-width="5" />
      </g>
      <line x1="16.9" y1="-46.9" x2="-36.9" y2="6.9" fill="none" stroke="#2e2e2e" stroke-miterlimit="10"
        stroke-width="5" />
    </pattern>
    <pattern id="Новый_узор_3-5" data-name="Новый узор 3" width="120" height="120"
      patternTransform="translate(-213.86 -268.7)" patternUnits="userSpaceOnUse" viewBox="0 0 120 120">
      <rect width="120" height="120" fill="none" />
      <line x1="156.9" y1="113.1" x2="103.1" y2="166.9" fill="none" stroke="#2e2e2e" stroke-miterlimit="10"
        stroke-width="5" />
      <g>
        <line x1="36.9" y1="113.1" x2="-16.9" y2="166.9" fill="none" stroke="#2e2e2e" stroke-miterlimit="10"
          stroke-width="5" />
        <line x1="56.9" y1="113.1" x2="3.1" y2="166.9" fill="none" stroke="#2e2e2e" stroke-miterlimit="10"
          stroke-width="5" />
        <line x1="76.9" y1="113.1" x2="23.1" y2="166.9" fill="none" stroke="#2e2e2e" stroke-miterlimit="10"
          stroke-width="5" />
        <line x1="96.9" y1="113.1" x2="43.1" y2="166.9" fill="none" stroke="#2e2e2e" stroke-miterlimit="10"
          stroke-width="5" />
        <line x1="116.9" y1="113.1" x2="63.1" y2="166.9" fill="none" stroke="#2e2e2e" stroke-miterlimit="10"
          stroke-width="5" />
        <line x1="136.9" y1="113.1" x2="83.1" y2="166.9" fill="none" stroke="#2e2e2e" stroke-miterlimit="10"
          stroke-width="5" />
      </g>
      <line x1="16.9" y1="113.1" x2="-36.9" y2="166.9" fill="none" stroke="#2e2e2e" stroke-miterlimit="10"
        stroke-width="5" />
      <line x1="156.9" y1="73.1" x2="103.1" y2="126.9" fill="none" stroke="#2e2e2e" stroke-miterlimit="10"
        stroke-width="5" />
      <g>
        <line x1="36.9" y1="73.1" x2="-16.9" y2="126.9" fill="none" stroke="#2e2e2e" stroke-miterlimit="10"
          stroke-width="5" />
        <line x1="56.9" y1="73.1" x2="3.1" y2="126.9" fill="none" stroke="#2e2e2e" stroke-miterlimit="10"
          stroke-width="5" />
        <line x1="76.9" y1="73.1" x2="23.1" y2="126.9" fill="none" stroke="#2e2e2e" stroke-miterlimit="10"
          stroke-width="5" />
        <line x1="96.9" y1="73.1" x2="43.1" y2="126.9" fill="none" stroke="#2e2e2e" stroke-miterlimit="10"
          stroke-width="5" />
        <line x1="116.9" y1="73.1" x2="63.1" y2="126.9" fill="none" stroke="#2e2e2e" stroke-miterlimit="10"
          stroke-width="5" />
        <line x1="136.9" y1="73.1" x2="83.1" y2="126.9" fill="none" stroke="#2e2e2e" stroke-miterlimit="10"
          stroke-width="5" />
      </g>
      <line x1="16.9" y1="73.1" x2="-36.9" y2="126.9" fill="none" stroke="#2e2e2e" stroke-miterlimit="10"
        stroke-width="5" />
      <line x1="156.9" y1="33.1" x2="103.1" y2="86.9" fill="none" stroke="#2e2e2e" stroke-miterlimit="10"
        stroke-width="5" />
      <g>
        <line x1="36.9" y1="33.1" x2="-16.9" y2="86.9" fill="none" stroke="#2e2e2e" stroke-miterlimit="10"
          stroke-width="5" />
        <line x1="56.9" y1="33.1" x2="3.1" y2="86.9" fill="none" stroke="#2e2e2e" stroke-miterlimit="10"
          stroke-width="5" />
        <line x1="76.9" y1="33.1" x2="23.1" y2="86.9" fill="none" stroke="#2e2e2e" stroke-miterlimit="10"
          stroke-width="5" />
        <line x1="96.9" y1="33.1" x2="43.1" y2="86.9" fill="none" stroke="#2e2e2e" stroke-miterlimit="10"
          stroke-width="5" />
        <line x1="116.9" y1="33.1" x2="63.1" y2="86.9" fill="none" stroke="#2e2e2e" stroke-miterlimit="10"
          stroke-width="5" />
        <line x1="136.9" y1="33.1" x2="83.1" y2="86.9" fill="none" stroke="#2e2e2e" stroke-miterlimit="10"
          stroke-width="5" />
      </g>
      <line x1="16.9" y1="33.1" x2="-36.9" y2="86.9" fill="none" stroke="#2e2e2e" stroke-miterlimit="10"
        stroke-width="5" />
      <line x1="156.9" y1="-6.9" x2="103.1" y2="46.9" fill="none" stroke="#2e2e2e" stroke-miterlimit="10"
        stroke-width="5" />
      <g>
        <line x1="36.9" y1="-6.9" x2="-16.9" y2="46.9" fill="none" stroke="#2e2e2e" stroke-miterlimit="10"
          stroke-width="5" />
        <line x1="56.9" y1="-6.9" x2="3.1" y2="46.9" fill="none" stroke="#2e2e2e" stroke-miterlimit="10"
          stroke-width="5" />
        <line x1="76.9" y1="-6.9" x2="23.1" y2="46.9" fill="none" stroke="#2e2e2e" stroke-miterlimit="10"
          stroke-width="5" />
        <line x1="96.9" y1="-6.9" x2="43.1" y2="46.9" fill="none" stroke="#2e2e2e" stroke-miterlimit="10"
          stroke-width="5" />
        <line x1="116.9" y1="-6.9" x2="63.1" y2="46.9" fill="none" stroke="#2e2e2e" stroke-miterlimit="10"
          stroke-width="5" />
        <line x1="136.9" y1="-6.9" x2="83.1" y2="46.9" fill="none" stroke="#2e2e2e" stroke-miterlimit="10"
          stroke-width="5" />
      </g>
      <line x1="16.9" y1="-6.9" x2="-36.9" y2="46.9" fill="none" stroke="#2e2e2e" stroke-miterlimit="10"
        stroke-width="5" />
      <line x1="156.9" y1="-46.9" x2="103.1" y2="6.9" fill="none" stroke="#2e2e2e" stroke-miterlimit="10"
        stroke-width="5" />
      <g>
        <line x1="36.9" y1="-46.9" x2="-16.9" y2="6.9" fill="none" stroke="#2e2e2e" stroke-miterlimit="10"
          stroke-width="5" />
        <line x1="56.9" y1="-46.9" x2="3.1" y2="6.9" fill="none" stroke="#2e2e2e" stroke-miterlimit="10"
          stroke-width="5" />
        <line x1="76.9" y1="-46.9" x2="23.1" y2="6.9" fill="none" stroke="#2e2e2e" stroke-miterlimit="10"
          stroke-width="5" />
        <line x1="96.9" y1="-46.9" x2="43.1" y2="6.9" fill="none" stroke="#2e2e2e" stroke-miterlimit="10"
          stroke-width="5" />
        <line x1="116.9" y1="-46.9" x2="63.1" y2="6.9" fill="none" stroke="#2e2e2e" stroke-miterlimit="10"
          stroke-width="5" />
        <line x1="136.9" y1="-46.9" x2="83.1" y2="6.9" fill="none" stroke="#2e2e2e" stroke-miterlimit="10"
          stroke-width="5" />
      </g>
      <line x1="16.9" y1="-46.9" x2="-36.9" y2="6.9" fill="none" stroke="#2e2e2e" stroke-miterlimit="10"
        stroke-width="5" />
    </pattern>
    <pattern id="Новый_узор_3-7" data-name="Новый узор 3" width="120" height="120"
      patternTransform="translate(-173.86 -178.7)" patternUnits="userSpaceOnUse" viewBox="0 0 120 120">
      <rect width="120" height="120" fill="none" />
      <line x1="156.9" y1="113.1" x2="103.1" y2="166.9" fill="none" stroke="#2e2e2e" stroke-miterlimit="10"
        stroke-width="5" />
      <g>
        <line x1="36.9" y1="113.1" x2="-16.9" y2="166.9" fill="none" stroke="#2e2e2e" stroke-miterlimit="10"
          stroke-width="5" />
        <line x1="56.9" y1="113.1" x2="3.1" y2="166.9" fill="none" stroke="#2e2e2e" stroke-miterlimit="10"
          stroke-width="5" />
        <line x1="76.9" y1="113.1" x2="23.1" y2="166.9" fill="none" stroke="#2e2e2e" stroke-miterlimit="10"
          stroke-width="5" />
        <line x1="96.9" y1="113.1" x2="43.1" y2="166.9" fill="none" stroke="#2e2e2e" stroke-miterlimit="10"
          stroke-width="5" />
        <line x1="116.9" y1="113.1" x2="63.1" y2="166.9" fill="none" stroke="#2e2e2e" stroke-miterlimit="10"
          stroke-width="5" />
        <line x1="136.9" y1="113.1" x2="83.1" y2="166.9" fill="none" stroke="#2e2e2e" stroke-miterlimit="10"
          stroke-width="5" />
      </g>
      <line x1="16.9" y1="113.1" x2="-36.9" y2="166.9" fill="none" stroke="#2e2e2e" stroke-miterlimit="10"
        stroke-width="5" />
      <line x1="156.9" y1="73.1" x2="103.1" y2="126.9" fill="none" stroke="#2e2e2e" stroke-miterlimit="10"
        stroke-width="5" />
      <g>
        <line x1="36.9" y1="73.1" x2="-16.9" y2="126.9" fill="none" stroke="#2e2e2e" stroke-miterlimit="10"
          stroke-width="5" />
        <line x1="56.9" y1="73.1" x2="3.1" y2="126.9" fill="none" stroke="#2e2e2e" stroke-miterlimit="10"
          stroke-width="5" />
        <line x1="76.9" y1="73.1" x2="23.1" y2="126.9" fill="none" stroke="#2e2e2e" stroke-miterlimit="10"
          stroke-width="5" />
        <line x1="96.9" y1="73.1" x2="43.1" y2="126.9" fill="none" stroke="#2e2e2e" stroke-miterlimit="10"
          stroke-width="5" />
        <line x1="116.9" y1="73.1" x2="63.1" y2="126.9" fill="none" stroke="#2e2e2e" stroke-miterlimit="10"
          stroke-width="5" />
        <line x1="136.9" y1="73.1" x2="83.1" y2="126.9" fill="none" stroke="#2e2e2e" stroke-miterlimit="10"
          stroke-width="5" />
      </g>
      <line x1="16.9" y1="73.1" x2="-36.9" y2="126.9" fill="none" stroke="#2e2e2e" stroke-miterlimit="10"
        stroke-width="5" />
      <line x1="156.9" y1="33.1" x2="103.1" y2="86.9" fill="none" stroke="#2e2e2e" stroke-miterlimit="10"
        stroke-width="5" />
      <g>
        <line x1="36.9" y1="33.1" x2="-16.9" y2="86.9" fill="none" stroke="#2e2e2e" stroke-miterlimit="10"
          stroke-width="5" />
        <line x1="56.9" y1="33.1" x2="3.1" y2="86.9" fill="none" stroke="#2e2e2e" stroke-miterlimit="10"
          stroke-width="5" />
        <line x1="76.9" y1="33.1" x2="23.1" y2="86.9" fill="none" stroke="#2e2e2e" stroke-miterlimit="10"
          stroke-width="5" />
        <line x1="96.9" y1="33.1" x2="43.1" y2="86.9" fill="none" stroke="#2e2e2e" stroke-miterlimit="10"
          stroke-width="5" />
        <line x1="116.9" y1="33.1" x2="63.1" y2="86.9" fill="none" stroke="#2e2e2e" stroke-miterlimit="10"
          stroke-width="5" />
        <line x1="136.9" y1="33.1" x2="83.1" y2="86.9" fill="none" stroke="#2e2e2e" stroke-miterlimit="10"
          stroke-width="5" />
      </g>
      <line x1="16.9" y1="33.1" x2="-36.9" y2="86.9" fill="none" stroke="#2e2e2e" stroke-miterlimit="10"
        stroke-width="5" />
      <line x1="156.9" y1="-6.9" x2="103.1" y2="46.9" fill="none" stroke="#2e2e2e" stroke-miterlimit="10"
        stroke-width="5" />
      <g>
        <line x1="36.9" y1="-6.9" x2="-16.9" y2="46.9" fill="none" stroke="#2e2e2e" stroke-miterlimit="10"
          stroke-width="5" />
        <line x1="56.9" y1="-6.9" x2="3.1" y2="46.9" fill="none" stroke="#2e2e2e" stroke-miterlimit="10"
          stroke-width="5" />
        <line x1="76.9" y1="-6.9" x2="23.1" y2="46.9" fill="none" stroke="#2e2e2e" stroke-miterlimit="10"
          stroke-width="5" />
        <line x1="96.9" y1="-6.9" x2="43.1" y2="46.9" fill="none" stroke="#2e2e2e" stroke-miterlimit="10"
          stroke-width="5" />
        <line x1="116.9" y1="-6.9" x2="63.1" y2="46.9" fill="none" stroke="#2e2e2e" stroke-miterlimit="10"
          stroke-width="5" />
        <line x1="136.9" y1="-6.9" x2="83.1" y2="46.9" fill="none" stroke="#2e2e2e" stroke-miterlimit="10"
          stroke-width="5" />
      </g>
      <line x1="16.9" y1="-6.9" x2="-36.9" y2="46.9" fill="none" stroke="#2e2e2e" stroke-miterlimit="10"
        stroke-width="5" />
      <line x1="156.9" y1="-46.9" x2="103.1" y2="6.9" fill="none" stroke="#2e2e2e" stroke-miterlimit="10"
        stroke-width="5" />
      <g>
        <line x1="36.9" y1="-46.9" x2="-16.9" y2="6.9" fill="none" stroke="#2e2e2e" stroke-miterlimit="10"
          stroke-width="5" />
        <line x1="56.9" y1="-46.9" x2="3.1" y2="6.9" fill="none" stroke="#2e2e2e" stroke-miterlimit="10"
          stroke-width="5" />
        <line x1="76.9" y1="-46.9" x2="23.1" y2="6.9" fill="none" stroke="#2e2e2e" stroke-miterlimit="10"
          stroke-width="5" />
        <line x1="96.9" y1="-46.9" x2="43.1" y2="6.9" fill="none" stroke="#2e2e2e" stroke-miterlimit="10"
          stroke-width="5" />
        <line x1="116.9" y1="-46.9" x2="63.1" y2="6.9" fill="none" stroke="#2e2e2e" stroke-miterlimit="10"
          stroke-width="5" />
        <line x1="136.9" y1="-46.9" x2="83.1" y2="6.9" fill="none" stroke="#2e2e2e" stroke-miterlimit="10"
          stroke-width="5" />
      </g>
      <line x1="16.9" y1="-46.9" x2="-36.9" y2="6.9" fill="none" stroke="#2e2e2e" stroke-miterlimit="10"
        stroke-width="5" />
    </pattern>
  </defs>
  <g id="frame">
    <path d="M1692.09,498.49" transform="translate(-185.68 -203.18)" fill="none" stroke="#4d4d4d" stroke-miterlimit="10"
      stroke-width="0.75" />
    <rect x="0.5" y="56.1" width="131.65" height="507.88" stroke-miterlimit="10" opacity="0.1" fill="url(#Новый_узор_3)"
      stroke="url(#Новый_узор_3-3)" />
    <polygon points="1487.4 12.05 1507.25 31.9 1507.25 12.05 1487.4 12.05" fill="none" stroke="#fff"
      stroke-miterlimit="10" stroke-width="0.75" opacity="0.75" />
    <polyline points="933.69 673.67 888.75 628.73 869.46 628.73" fill="none" stroke="#c6b63f" stroke-miterlimit="10"
      opacity="0.75" />
    <path d="M1691.61,259.44" transform="translate(-185.68 -203.18)" fill="none" stroke="#4d4d4d" stroke-miterlimit="10"
      stroke-width="0.75" />
    <path d="M903.14,262.93" transform="translate(-185.68 -203.18)" fill="none" stroke="#4d4d4d" stroke-miterlimit="10"
      stroke-width="0.75" />
    <line x1="659.69" y1="59.2" x2="717.46" y2="59.2" fill="none" stroke="#4d4d4d" stroke-miterlimit="10"
      stroke-width="0.75" />
    <path d="M842.9,262.37" transform="translate(-185.68 -203.18)" fill="none" stroke="#4d4d4d" stroke-miterlimit="10"
      stroke-width="0.75" />
    <path d="M326,519.68" transform="translate(-185.68 -203.18)" fill="none" stroke="#4d4d4d" stroke-miterlimit="10"
      stroke-width="0.75" />
    <path d="M325.86,575" transform="translate(-185.68 -203.18)" fill="none" stroke="#4d4d4d" stroke-miterlimit="10"
      stroke-width="0.75" />
    <path d="M1668.28,713.08" transform="translate(-185.68 -203.18)" fill="none" stroke="#4d4d4d" stroke-miterlimit="10"
      stroke-width="0.75" />
    <g opacity="0.75">
      <polyline points="1506.4 298.59 1506.4 353.4 1482.6 393.27 1482.6 459.08" fill="none" stroke="#fff"
        stroke-miterlimit="10" stroke-width="0.75" />
      <polygon points="1511.71 310.55 1506.4 319.52 1506.4 298.94 1511.71 298.94 1511.71 310.55" fill="#fff"
        stroke="#fff" stroke-miterlimit="10" stroke-width="0.75" />
      <rect x="1466.87" y="456.73" width="15.73" height="2.35" fill="none" stroke="#fff" stroke-miterlimit="10"
        stroke-width="0.75" />
    </g>
    <polygon points="1492.83 394.16 1523.1 344.73 1548.51 344.73 1548.51 647.99 1492.83 647.99 1492.83 394.16"
      stroke-miterlimit="10" opacity="0.1" fill="url(#Новый_узор_3-5)" stroke="url(#Новый_узор_3-7)" />
    <g opacity="0.1">
      <polygon points="891.69 59.2 885.69 59.2 932.08 13.86 1200.4 13.86 1214.6 28.05 924.17 28.05 891.69 59.2"
        fill="#4d4d4d" stroke="#4d4d4d" stroke-miterlimit="10" stroke-width="0.75" />
      <polygon points="1201.1 28.05 1207.04 33.99 1324.63 33.99 1330.78 27.85 1201.1 28.05" fill="#4d4d4d" />
      <polyline
        points="1506.44 57.2 1506.44 48.88 1469.69 12.13 1376.56 12.13 1360.28 28.05 1214.6 28.05 1200.4 13.86 932.08 13.86 885.69 59.2 877.91 59.2 923.25 13.86 932.08 13.86"
        fill="none" stroke="#4d4d4d" stroke-miterlimit="10" stroke-width="0.75" />
      <polygon
        points="1506.44 57.2 1486.87 57.2 1449 19.34 1369.19 19.34 1376.48 12.05 1469.69 12.05 1506.48 48.84 1506.44 57.2"
        fill="#4d4d4d" />
    </g>
    <rect x="1487.4" y="59.14" width="35.24" height="3.59" fill="none" stroke="#4d4d4d" stroke-miterlimit="10"
      stroke-width="0.75" opacity="0.25" />
    <rect x="1487.4" y="65.61" width="35.24" height="3.59" fill="none" stroke="#fff" stroke-miterlimit="10"
      stroke-width="0.75" opacity="0.75" />
    <rect x="1487.4" y="72.56" width="35.24" height="3.59" fill="none" stroke="#c6b63f" stroke-miterlimit="10"
      opacity="0.75" />
    <g opacity="0.5">
      <polyline points="1506.44 107.08 1506.4 295.32 1506.44 140.36" fill="none" stroke="#4d4d4d" stroke-miterlimit="10"
        stroke-width="0.75" />
      <polygon points="1511.71 247.55 1506.4 240.3 1506.4 295.32 1511.71 295.32 1511.71 247.55" fill="none"
        stroke="#4d4d4d" stroke-miterlimit="10" stroke-width="0.75" />
      <polygon points="1501.81 146.02 1506.44 152.84 1506.44 107.08 1501.81 107.08 1501.81 146.02" fill="#4d4d4d"
        stroke="#4d4d4d" stroke-miterlimit="10" />
    </g>
    <path d="M1668.28,666.6" transform="translate(-185.68 -203.18)" fill="none" stroke="#4d4d4d" stroke-miterlimit="10"
      stroke-width="0.75" />
    <path d="M1668.28,666.6" transform="translate(-185.68 -203.18)" fill="none" stroke="#c6b63f" stroke-miterlimit="10"
      stroke-width="0.75" />
    <rect x="1466.87" y="461.55" width="15.73" height="2.67" fill="none" stroke="#c6b63f" stroke-miterlimit="10"
      stroke-width="0.75" />
    <rect x="1466.87" y="466.9" width="15.73" height="2.67" fill="none" stroke="#4d4d4d" stroke-miterlimit="10"
      stroke-width="0.75" opacity="0.1" />
    <rect x="1466.87" y="472.18" width="15.73" height="2.67" fill="none" stroke="#4d4d4d" stroke-miterlimit="10"
      stroke-width="0.75" opacity="0.25" />
    <polyline points="1162.75 9.81 1201.93 9.81 1216.87 24.75" fill="none" stroke="#4d4d4d" stroke-miterlimit="10"
      stroke-width="0.75" opacity="0.5" />
    <polyline points="709.72 59.2 694.81 59.2 699.37 54.87 725.17 54.87 720.76 59.2 709.72 59.2" fill="#4d4d4d"
      stroke="#4d4d4d" stroke-miterlimit="10" stroke-width="0.75" />
    <g>
      <rect x="1466.87" y="440.67" width="12.6" height="12.6" fill="none" stroke="#4d4d4d" stroke-miterlimit="10"
        stroke-width="0.75" />
      <line x1="1466.87" y1="440.67" x2="1479.47" y2="453.27" fill="none" stroke="#4d4d4d" stroke-miterlimit="10"
        stroke-width="0.75" />
    </g>
    <line x1="1510.28" y1="319.52" x2="1510.28" y2="344.73" fill="none" stroke="#4d4d4d" stroke-miterlimit="10"
      stroke-width="0.75" opacity="0.5" />
    <polyline points="1365.45 27.85 1371.01 22.29 1446.63 22.29" fill="none" stroke="#c6b63f" stroke-miterlimit="10"
      stroke-width="0.75" opacity="0.75" />
    <path d="M621.25,820.17" transform="translate(-185.68 -203.18)" fill="none" stroke="#4d4d4d" stroke-miterlimit="10"
      stroke-width="0.75" />
    <line x1="652.98" y1="617" x2="466.63" y2="617" fill="none" stroke="#4d4d4d" stroke-miterlimit="10"
      stroke-width="0.75" opacity="0.1" />
    <path d="M838.67,820.17" transform="translate(-185.68 -203.18)" fill="none" stroke="#4d4d4d" stroke-miterlimit="10"
      stroke-width="0.75" />
    <line x1="826.16" y1="617" x2="655.98" y2="617" fill="none" stroke="#4d4d4d" stroke-miterlimit="10"
      stroke-width="0.75" />
    <path d="M1023.37,820.17" transform="translate(-185.68 -203.18)" fill="none" stroke="#4d4d4d" stroke-miterlimit="10"
      stroke-width="0.75" />
    <path d="M1353,852.58" transform="translate(-185.68 -203.18)" fill="none" stroke="#4d4d4d" stroke-miterlimit="10"
      stroke-width="0.75" />
    <g opacity="0.5">
      <polygon points="1482.54 624.38 1457.52 649.41 1482.54 649.41 1482.54 624.38" fill="#4d4d4d" stroke="#4d4d4d"
        stroke-miterlimit="10" stroke-width="0.75" />
      <polygon points="1480.5 626.42 1480.5 548.55 1482.64 546.41 1482.64 624.38 1480.5 626.42" fill="#4d4d4d"
        stroke="#4d4d4d" stroke-miterlimit="10" stroke-width="0.75" />
      <polygon points="1459.36 647.27 1381.49 647.27 1379.35 649.41 1457.32 649.41 1459.36 647.27" fill="#4d4d4d"
        stroke="#4d4d4d" stroke-miterlimit="10" stroke-width="0.75" />
      <polyline points="1482.6 512.49 1482.6 649.41 1210.28 649.41" fill="none" stroke="#4d4d4d" stroke-miterlimit="10"
        stroke-width="0.75" />
    </g>
    <polyline points="1457.52 640.49 1474.18 623.83 1474.18 565.32" fill="none" stroke="#4d4d4d" stroke-miterlimit="10"
      stroke-width="0.75" opacity="0.25" />
    <g opacity="0.5">
      <polygon points="345.22 617 348.14 619.92 366.87 619.92 369.74 617.05 345.22 617" fill="#4d4d4d" stroke="#4d4d4d"
        stroke-miterlimit="10" stroke-width="0.75" />
      <polygon points="375.22 617 378.14 619.92 396.87 619.92 399.74 617.05 375.22 617" fill="#4d4d4d" stroke="#4d4d4d"
        stroke-miterlimit="10" stroke-width="0.75" />
      <polyline points="435.57 617 199.1 617 139.99 557.88 140.18 371.85" fill="none" stroke="#4d4d4d"
        stroke-miterlimit="10" stroke-width="0.75" />
      <g>
        <polygon points="195.56 613.45 317.93 613.45 321.35 616.87 199.1 616.87 195.56 613.45" fill="#4d4d4d"
          stroke="#4d4d4d" stroke-miterlimit="10" stroke-width="0.75" />
        <polygon points="139.99 557.88 139.99 565.67 190.87 617.07 199.1 617 139.99 557.88" fill="#4d4d4d"
          stroke="#4d4d4d" stroke-miterlimit="10" stroke-width="0.75" />
        <polygon
          points="162.32 580.22 162.32 556.93 146.44 541.04 146.44 412.85 140.18 406.61 140.35 557.88 162.32 580.22"
          fill="#4d4d4d" />
      </g>
      <polygon points="137.88 376.82 140.18 380.29 140.18 371.85 137.88 371.85 137.88 376.82" fill="#4d4d4d" />
    </g>
    <polyline points="166.66 560.73 166.66 577.32 198.24 608.89 243.57 608.89" fill="none" stroke="#4d4d4d"
      stroke-miterlimit="10" opacity="0.25" />
    <polyline points="649.1 74.35 659.19 64.26 817.81 64.26" fill="none" stroke="#4d4d4d" stroke-miterlimit="10"
      stroke-width="0.75" />
    <polyline points="1379.35 653.91 1379.35 658.61 1482.64 658.61 1482.64 653.91" fill="none" stroke="#c6b63f"
      stroke-miterlimit="10" opacity="0.75" />
    <polyline points="1482.64 666.02 1482.64 661.32 1379.35 661.32 1379.35 666.02" fill="none" stroke="#c6b63f"
      stroke-miterlimit="10" opacity="0.75" />
    <rect x="1466.43" y="433.55" width="13.28" height="4.47" fill="#4d4d4d" opacity="0.25" />
    <rect x="1466.43" y="431.91" width="13.28" height="0.69" fill="#fff" />
    <rect x="1466.43" y="423.29" width="13.28" height="0.69" fill="#fff" opacity="0.5" />
    <rect x="1466.43" y="430.26" width="13.28" height="0.69" fill="#fff" opacity="0.1" />
    <rect x="1466.43" y="427.41" width="13.28" height="1.9" fill="#4d4d4d" opacity="0.5" />
    <rect x="1466.53" y="424.94" width="13.28" height="1.51" fill="#4d4d4d" opacity="0.1" />
    <g opacity="0.75">
      <line x1="140.19" y1="369.44" x2="140.27" y2="322.61" fill="#fff" stroke="#fff" stroke-miterlimit="10"
        stroke-width="0.75" />
      <polygon points="137.88 364.47 140.18 361 140.18 369.44 137.88 369.44 137.88 364.47" fill="#fff" stroke="#fff"
        stroke-miterlimit="10" stroke-width="0.75" />
      <polygon points="142.58 327.74 140.28 331.21 140.28 322.77 142.58 322.77 142.58 327.74" fill="#fff" stroke="#fff"
        stroke-miterlimit="10" stroke-width="0.75" />
    </g>
    <rect x="1519.72" y="9.26" width="2.91" height="1.18" fill="#c6b63f" />
    <polyline points="353.22 64.76 382.32 64.76 401.96 84.4" fill="none" stroke="#c6b63f" stroke-miterlimit="10" />
    <line x1="440.04" y1="617" x2="456.75" y2="617" fill="none" stroke="#c6b63f" stroke-miterlimit="10"
      stroke-width="0.75" />
    <path d="M325.67,796.38" transform="translate(-185.68 -203.18)" fill="none" stroke="#fff" stroke-miterlimit="10"
      stroke-width="0.75" />
    <g opacity="0.25">
      <polygon points="139.99 593.2 166.66 619.88 139.99 619.88 139.99 593.2" fill="#4d4d4d" stroke="#4d4d4d"
        stroke-miterlimit="10" />
      <line x1="139.99" y1="593.2" x2="188.43" y2="641.64" fill="#4d4d4d" stroke="#4d4d4d" stroke-miterlimit="10" />
    </g>
    <path d="M326,507" transform="translate(-185.68 -203.18)" fill="none" stroke="#4d4d4d" stroke-miterlimit="10"
      stroke-width="0.75" opacity="0.25" />
    <path d="M326,519.68" transform="translate(-185.68 -203.18)" fill="none" stroke="#4d4d4d" stroke-miterlimit="10"
      stroke-width="0.75" opacity="0.25" />
    <line x1="140.27" y1="301" x2="140.27" y2="295.67" fill="none" stroke="#c6b63f" stroke-miterlimit="10"
      stroke-width="0.75" />
    <polyline points="1330.78 31.9 1324.59 38.09 1284.04 38.09" fill="none" stroke="#4d4d4d" stroke-miterlimit="10"
      stroke-width="0.75" opacity="0.5" />
    <line x1="1176.22" y1="649.41" x2="1180.98" y2="649.41" fill="none" stroke="#c6b63f" stroke-miterlimit="10" />
    <line x1="1237.28" y1="609.44" x2="1242.04" y2="609.44" fill="none" stroke="#c6b63f" stroke-miterlimit="10" />
    <line x1="1237.28" y1="629.62" x2="1242.04" y2="629.62" fill="none" stroke="#c6b63f" stroke-miterlimit="10" />
    <polygon points="774.63 611.2 826.16 611.2 826.16 617 764.75 617 774.63 611.2" fill="#4d4d4d" stroke="#4d4d4d"
      stroke-miterlimit="10" stroke-width="0.75" />
    <polygon points="357.48 630.22 364.04 623.68 350.92 623.68 357.48 630.22" fill="none" stroke="#c6b63f"
      stroke-miterlimit="10" stroke-width="0.75" />
    <polyline points="284.87 619.92 340.28 619.92 347.8 627.44" fill="none" stroke="#fff" stroke-miterlimit="10"
      stroke-width="0.75" opacity="0.75" />
    <polygon points="396.28 74.35 405.16 83.23 460.51 83.23 470.16 74.39 396.28 74.35" fill="#4d4d4d" stroke="#4d4d4d"
      stroke-miterlimit="10" stroke-width="0.75" opacity="0.1" />
    <polygon points="581.74 55.08 589.98 63.32 641.33 63.32 650.28 55.11 581.74 55.08" fill="#c6b63f" stroke="#c6b63f"
      stroke-miterlimit="10" stroke-width="0.75" opacity="0.75" />
    <g opacity="0.25">
      <polyline points="140.27 288.26 140.51 59.2 579.68 59.2" fill="none" stroke="#4d4d4d" stroke-miterlimit="10"
        stroke-width="0.75" />
      <polygon points="142.82 73.82 140.51 77.29 140.51 61.35 142.82 61.35 142.82 73.82" fill="#4d4d4d" />
      <polygon points="149.86 59.55 140.51 59.55 140.51 68.91 149.86 59.55" fill="#4d4d4d" stroke="#4d4d4d"
        stroke-miterlimit="10" stroke-width="0.75" />
      <polygon
        points="651.66 59.2 642.99 67.15 587.63 67.15 579.68 59.2 140.51 59.2 140.51 61.73 384.4 61.73 392.98 70.32 643.57 70.32 654.69 59.2 651.66 59.2"
        fill="#4d4d4d" stroke="#4d4d4d" stroke-miterlimit="10" stroke-width="0.75" />
    </g>
    <polygon points="727.56 78.79 718.68 69.91 663.33 69.91 653.68 78.75 727.56 78.79" fill="#4d4d4d" stroke="#4d4d4d"
      stroke-miterlimit="10" stroke-width="0.75" opacity="0.1" />
    <polygon points="1452.31 9.26 1443.42 0.38 1388.07 0.38 1378.42 9.22 1452.31 9.26" fill="#4d4d4d" stroke="#4d4d4d"
      stroke-miterlimit="10" stroke-width="0.75" opacity="0.1" />
    <g opacity="0.1">
      <polyline points="1167.34 649.41 927.79 649.41 895.38 617 837.69 617" fill="none" stroke="#4d4d4d"
        stroke-miterlimit="10" stroke-width="0.75" />
      <polyline points="1025.67 641.45 1048.45 641.45 1056.49 649.49" fill="none" stroke="#4d4d4d"
        stroke-miterlimit="10" stroke-width="0.75" />
      <polygon points="850.28 611.2 838.04 611.2 838.04 617 860.16 617 850.28 611.2" fill="#4d4d4d" stroke="#4d4d4d"
        stroke-miterlimit="10" stroke-width="0.75" />
      <polygon
        points="985.85 634.63 983 631.78 1016.01 631.78 1011.07 626.85 939.39 626.85 933.69 621.15 1005.39 621.17 1001.22 617 895.38 617 927.79 649.41 994.94 649.41 1002.89 641.45 1025.67 641.45 1018.85 634.63 985.85 634.63"
        fill="#4d4d4d" stroke="#4d4d4d" stroke-miterlimit="10" stroke-width="0.75" />
    </g>
    <polygon points="162.32 556.93 162.32 548.38 146.61 532.67 146.61 541.04 162.32 556.93" fill="none" stroke="#c6b63f"
      stroke-miterlimit="10" stroke-width="0.75" opacity="0.75" />
    <g>
      <polygon points="904.75 59.2 927.79 37.11 931.33 37.11 908.93 59.2 904.75 59.2" fill="#4d4d4d" stroke="#4d4d4d"
        stroke-miterlimit="10" stroke-width="0.75" />
      <polygon points="917.85 59.2 940.89 37.11 944.43 37.11 922.03 59.2 917.85 59.2" fill="#4d4d4d" stroke="#4d4d4d"
        stroke-miterlimit="10" stroke-width="0.75" opacity="0.93" />
      <polygon points="930.95 59.2 953.99 37.11 957.53 37.11 935.13 59.2 930.95 59.2" fill="#4d4d4d" stroke="#4d4d4d"
        stroke-miterlimit="10" stroke-width="0.75" opacity="0.86" />
      <polygon points="944.05 59.2 967.09 37.11 970.63 37.11 948.23 59.2 944.05 59.2" fill="#4d4d4d" stroke="#4d4d4d"
        stroke-miterlimit="10" stroke-width="0.75" opacity="0.79" />
      <polygon points="957.15 59.2 980.19 37.11 983.73 37.11 961.33 59.2 957.15 59.2" fill="#4d4d4d" stroke="#4d4d4d"
        stroke-miterlimit="10" stroke-width="0.75" opacity="0.71" />
      <polygon points="970.25 59.2 993.29 37.11 996.83 37.11 974.42 59.2 970.25 59.2" fill="#4d4d4d" stroke="#4d4d4d"
        stroke-miterlimit="10" stroke-width="0.75" opacity="0.64" />
      <polygon points="983.35 59.2 1006.39 37.11 1009.93 37.11 987.52 59.2 983.35 59.2" fill="#4d4d4d" stroke="#4d4d4d"
        stroke-miterlimit="10" stroke-width="0.75" opacity="0.57" />
      <polygon points="996.45 59.2 1019.49 37.11 1023.03 37.11 1000.63 59.2 996.45 59.2" fill="#4d4d4d" stroke="#4d4d4d"
        stroke-miterlimit="10" stroke-width="0.75" opacity="0.5" />
      <polygon points="1009.55 59.2 1032.59 37.11 1036.13 37.11 1013.72 59.2 1009.55 59.2" fill="#4d4d4d"
        stroke="#4d4d4d" stroke-miterlimit="10" stroke-width="0.75" opacity="0.43" />
      <polygon points="1022.65 59.2 1045.69 37.11 1049.23 37.11 1026.82 59.2 1022.65 59.2" fill="#4d4d4d"
        stroke="#4d4d4d" stroke-miterlimit="10" stroke-width="0.75" opacity="0.36" />
      <polygon points="1035.75 59.2 1058.79 37.11 1062.33 37.11 1039.92 59.2 1035.75 59.2" fill="#4d4d4d"
        stroke="#4d4d4d" stroke-miterlimit="10" stroke-width="0.75" opacity="0.29" />
      <polygon points="1048.85 59.2 1071.89 37.11 1075.43 37.11 1053.02 59.2 1048.85 59.2" fill="#4d4d4d"
        stroke="#4d4d4d" stroke-miterlimit="10" stroke-width="0.75" opacity="0.21" />
      <polygon points="1061.95 59.2 1084.99 37.11 1088.53 37.11 1066.12 59.2 1061.95 59.2" fill="#4d4d4d"
        stroke="#4d4d4d" stroke-miterlimit="10" stroke-width="0.75" opacity="0.14" />
      <polygon points="1075.05 59.2 1098.09 37.11 1101.63 37.11 1079.22 59.2 1075.05 59.2" fill="#4d4d4d"
        stroke="#4d4d4d" stroke-miterlimit="10" stroke-width="0.75" opacity="0.07" />
      <polygon points="1088.15 59.2 1111.19 37.11 1114.73 37.11 1092.32 59.2 1088.15 59.2" fill="#4d4d4d"
        stroke="#4d4d4d" stroke-miterlimit="10" stroke-width="0.75" opacity="0" />
    </g>
    <polyline
      points="1078.98 645.47 1155.22 645.47 1327.35 473.34 1327.35 457.91 1406.02 379.24 1419.36 379.24 1500.16 298.43 1500.16 154.34 1494.53 148.71 1494.53 107.08"
      fill="none" stroke="#4d4d4d" stroke-miterlimit="10" stroke-width="0.75" opacity="0.25" />
    <rect x="140.19" y="313.96" width="2.39" height="6.41" fill="#4d4d4d" stroke="#4d4d4d" stroke-miterlimit="10"
      stroke-width="0.75" opacity="0.5" />
    <rect x="140.28" y="304.49" width="2.3" height="6.82" fill="#4d4d4d" stroke="#4d4d4d" stroke-miterlimit="10"
      stroke-width="0.75" opacity="0.75" />
    <polyline points="142.58 331.21 142.58 369.44 148.75 375.6 148.75 416.73" fill="none" stroke="#4d4d4d"
      stroke-miterlimit="10" stroke-width="0.75" opacity="0.25" />
    <g>
      <polygon points="146.49 411.55 146.49 409.68 141.3 404.5 141.3 406.39 146.49 411.55" fill="#4d4d4d" opacity="0" />
      <polygon points="146.49 406.92 146.49 405.05 141.3 399.87 141.3 401.76 146.49 406.92" fill="#4d4d4d"
        opacity="0.11" />
      <polygon points="146.49 402.29 146.49 400.42 141.3 395.24 141.3 397.13 146.49 402.29" fill="#4d4d4d"
        opacity="0.21" />
      <polygon points="146.49 397.66 146.49 395.79 141.3 390.61 141.3 392.5 146.49 397.66" fill="#4d4d4d"
        opacity="0.32" />
      <polygon points="146.49 393.02 146.49 391.15 141.3 385.97 141.3 387.86 146.49 393.02" fill="#4d4d4d"
        opacity="0.43" />
      <polygon points="146.49 388.39 146.49 386.52 141.3 381.34 141.3 383.23 146.49 388.39" fill="#4d4d4d"
        opacity="0.54" />
      <polygon points="146.49 383.76 146.49 381.89 141.3 376.71 141.3 378.6 146.49 383.76" fill="#4d4d4d"
        opacity="0.64" />
      <polygon points="146.49 379.13 146.49 377.26 141.3 372.08 141.3 373.97 146.49 379.13" fill="#4d4d4d"
        opacity="0.75" />
    </g>
    <line x1="148.75" y1="421.2" x2="148.75" y2="430.33" fill="none" stroke="#4d4d4d" stroke-miterlimit="10"
      stroke-width="0.75" opacity="0.5" />
    <line x1="148.75" y1="439.32" x2="148.75" y2="483.03" fill="none" stroke="#4d4d4d" stroke-miterlimit="10"
      stroke-width="0.75" opacity="0.1" />
    <line x1="148.75" y1="486.26" x2="148.75" y2="494.42" fill="#fff" stroke="#fff" stroke-miterlimit="10"
      stroke-width="0.75" opacity="0.75" />
    <g opacity="0.5">
      <text transform="translate(148.75 86.78) rotate(90)" font-size="22" fill="#fff"
        font-family="ISL_FADETOBLAK, ISL_FADE TO BLAK">authorization</text>
    </g>
    <g>
      <line x1="170.62" y1="288.12" x2="170.62" y2="282.79" fill="none" stroke="#c6b63f" stroke-miterlimit="10"
        stroke-width="0.75" />
      <line x1="170.62" y1="72.98" x2="170.62" y2="67.65" fill="none" stroke="#c6b63f" stroke-miterlimit="10"
        stroke-width="0.75" />
      <polyline points="177.1 67.15 177.1 82.94 169.03 91.01 169.03 261.06 177.49 269.52 177.49 288.26" fill="none"
        stroke="#4d4d4d" stroke-miterlimit="10" stroke-width="0.75" opacity="0.5" />
    </g>
    <line x1="173.26" y1="91.55" x2="173.26" y2="110.38" fill="none" stroke="#fff" stroke-miterlimit="10"
      stroke-width="0.75" opacity="0.5" />
    <line x1="173.26" y1="117.37" x2="173.26" y2="195.55" fill="none" stroke="#4d4d4d" stroke-miterlimit="10"
      stroke-width="0.75" opacity="0.1" />
    <line x1="173.26" y1="207.98" x2="173.26" y2="259.55" fill="none" stroke="#4d4d4d" stroke-miterlimit="10"
      stroke-width="0.75" opacity="0.25" />
    <polyline points="1194.11 540.46 1009.74 356.09 993.23 339.59 933.69 339.59" fill="none" stroke="#4d4d4d"
      stroke-miterlimit="10" stroke-width="0.75" opacity="0.75" />
    <polyline points="1290.39 68.23 1284.04 74.58 1480.56 271.1 1487.4 264.26" fill="none" stroke="#4d4d4d"
      stroke-miterlimit="10" stroke-width="0.75" opacity="0.75" />
    <polyline points="1479.87 262.5 1485.92 256.45 1298.67 69.2 1292.16 75.71" fill="none" stroke="#fff"
      stroke-miterlimit="10" stroke-width="0.75" opacity="0.75" />
    <polygon points="1331.35 477.34 1331.35 461.91 1410.02 383.24 1423.36 383.24 1331.35 477.34" fill="#4d4d4d"
      opacity="0.1" />
    <polyline points="1180.98 594.61 1163.41 577.04 1135.1 577.04 1062.23 504.17 1062.23 481.07 953.44 372.28"
      fill="none" stroke="#4d4d4d" stroke-miterlimit="10" stroke-width="0.75" opacity="0.25" />
    <polygon points="1242.04 594.61 1288.81 547.85 1457.52 547.85 1457.52 594.61 1242.04 594.61" stroke-miterlimit="10"
      opacity="0.1" fill="url(#Новый_узор_3-5)" stroke="url(#Новый_узор_3-7)" />
    <polygon points="1167.41 573.04 1139.1 573.04 1066.23 500.17 1066.23 477.07 1167.41 573.04" fill="#4d4d4d"
      opacity="0.25" />
    <line x1="1067.81" y1="474.76" x2="1169.46" y2="571.23" fill="none" stroke="#fff" stroke-miterlimit="10"
      stroke-width="0.75" />
    <line x1="1333.06" y1="479.3" x2="1425.17" y2="384.51" fill="none" stroke="#c6b63f" stroke-miterlimit="10"
      opacity="0.75" />
    <g>
      <rect x="1420.07" y="607.76" width="21.86" height="21.86" fill="none" stroke="#4d4d4d" stroke-miterlimit="10"
        stroke-width="0.75" />
      <line x1="1420.07" y1="607.76" x2="1441.93" y2="629.62" fill="none" stroke="#4d4d4d" stroke-miterlimit="10"
        stroke-width="0.75" />
    </g>
    <text transform="translate(1271.45 624.38)" opacity="0.5" font-size="22" fill="#fff"
      font-family="ISL_FADETOBLAK, ISL_FADE TO BLAK">3dungeon</text>
    <path d="M1596.08,810.94" transform="translate(-185.68 -203.18)" fill="none" stroke="#fff" stroke-miterlimit="10" />
    <rect x="1411.1" y="607.76" width="3.53" height="21.86" fill="none" stroke="#4d4d4d" stroke-miterlimit="10"
      stroke-width="0.75" opacity="0.5" />
    <rect x="1403.81" y="607.76" width="3.53" height="21.86" fill="#4d4d4d" stroke="#4d4d4d" stroke-miterlimit="10"
      opacity="0.1" />
    <line x1="1266.16" y1="609.44" x2="1396.04" y2="609.44" fill="#4d4d4d" stroke="#4d4d4d" stroke-miterlimit="10"
      opacity="0.1" />
    <line x1="1266.16" y1="628.85" x2="1396.04" y2="628.85" fill="#4d4d4d" stroke="#4d4d4d" stroke-miterlimit="10"
      opacity="0.1" />
    <line x1="1306.16" y1="69.2" x2="1319.34" y2="56.02" fill="none" stroke="#4d4d4d" stroke-miterlimit="10"
      stroke-width="0.75" />
    <line x1="1308.16" y1="71.2" x2="1321.34" y2="58.02" fill="none" stroke="#4d4d4d" stroke-miterlimit="10"
      stroke-width="0.75" />
    <line x1="1310.16" y1="73.2" x2="1323.34" y2="60.02" fill="none" stroke="#4d4d4d" stroke-miterlimit="10"
      stroke-width="0.75" />
    <line x1="1312.16" y1="75.2" x2="1325.34" y2="62.02" fill="none" stroke="#4d4d4d" stroke-miterlimit="10"
      stroke-width="0.75" />
    <g opacity="0.75">
      <polyline points="1183.63 76.14 1009.92 249.85 968.51 249.85" fill="none" stroke="#4d4d4d" stroke-miterlimit="10"
        stroke-width="0.75" />
      <polygon points="990.22 246.85 968.51 246.85 968.51 249.85 996.28 249.85 990.22 246.85" fill="#4d4d4d" />
    </g>
    <rect x="949.57" y="246.85" width="0.35" height="3.01" fill="none" stroke="#c6b63f" stroke-miterlimit="10"
      opacity="0.75" />
    <rect x="946.98" y="246.85" width="0.35" height="3.01" fill="none" stroke="#c6b63f" stroke-miterlimit="10"
      opacity="0.75" />
  </g>
</svg>