<svg id="auth_frame" xmlns="http://www.w3.org/2000/svg" xmlns:xlink="http://www.w3.org/1999/xlink" viewBox="0 0 378.79 372.93">
  <defs>
    <pattern id="Unnamed_Pattern" data-name="Unnamed Pattern" width="80" height="60" patternTransform="translate(-1304.58 -240.37) scale(3.61)" patternUnits="userSpaceOnUse" viewBox="0 0 80 60">
      <rect width="80" height="60" fill="none"/>
      <g>
        <line x1="103.88" y1="41.12" x2="66.12" y2="78.88" fill="none" stroke="#4d4d4d" stroke-miterlimit="10" stroke-width="4"/>
        <line x1="113.88" y1="41.12" x2="76.12" y2="78.88" fill="none" stroke="#4d4d4d" stroke-miterlimit="10" stroke-width="4"/>
      </g>
      <g>
        <line x1="23.88" y1="41.12" x2="-13.88" y2="78.88" fill="none" stroke="#4d4d4d" stroke-miterlimit="10" stroke-width="4"/>
        <line x1="33.88" y1="41.12" x2="-3.88" y2="78.88" fill="none" stroke="#4d4d4d" stroke-miterlimit="10" stroke-width="4"/>
        <line x1="43.88" y1="41.12" x2="6.12" y2="78.88" fill="none" stroke="#4d4d4d" stroke-miterlimit="10" stroke-width="4"/>
        <line x1="53.88" y1="41.12" x2="16.12" y2="78.88" fill="none" stroke="#4d4d4d" stroke-miterlimit="10" stroke-width="4"/>
        <line x1="63.88" y1="41.12" x2="26.12" y2="78.88" fill="none" stroke="#4d4d4d" stroke-miterlimit="10" stroke-width="4"/>
        <line x1="73.88" y1="41.12" x2="36.12" y2="78.88" fill="none" stroke="#4d4d4d" stroke-miterlimit="10" stroke-width="4"/>
        <line x1="83.88" y1="41.12" x2="46.12" y2="78.88" fill="none" stroke="#4d4d4d" stroke-miterlimit="10" stroke-width="4"/>
        <line x1="93.88" y1="41.12" x2="56.12" y2="78.88" fill="none" stroke="#4d4d4d" stroke-miterlimit="10" stroke-width="4"/>
      </g>
      <g>
        <line x1="3.88" y1="41.12" x2="-33.88" y2="78.88" fill="none" stroke="#4d4d4d" stroke-miterlimit="10" stroke-width="4"/>
        <line x1="13.88" y1="41.12" x2="-23.88" y2="78.88" fill="none" stroke="#4d4d4d" stroke-miterlimit="10" stroke-width="4"/>
      </g>
      <g>
        <line x1="103.88" y1="11.12" x2="66.12" y2="48.88" fill="none" stroke="#4d4d4d" stroke-miterlimit="10" stroke-width="4"/>
        <line x1="113.88" y1="11.12" x2="76.12" y2="48.88" fill="none" stroke="#4d4d4d" stroke-miterlimit="10" stroke-width="4"/>
      </g>
      <g>
        <line x1="23.88" y1="11.12" x2="-13.88" y2="48.88" fill="none" stroke="#4d4d4d" stroke-miterlimit="10" stroke-width="4"/>
        <line x1="33.88" y1="11.12" x2="-3.88" y2="48.88" fill="none" stroke="#4d4d4d" stroke-miterlimit="10" stroke-width="4"/>
        <line x1="43.88" y1="11.12" x2="6.12" y2="48.88" fill="none" stroke="#4d4d4d" stroke-miterlimit="10" stroke-width="4"/>
        <line x1="53.88" y1="11.12" x2="16.12" y2="48.88" fill="none" stroke="#4d4d4d" stroke-miterlimit="10" stroke-width="4"/>
        <line x1="63.88" y1="11.12" x2="26.12" y2="48.88" fill="none" stroke="#4d4d4d" stroke-miterlimit="10" stroke-width="4"/>
        <line x1="73.88" y1="11.12" x2="36.12" y2="48.88" fill="none" stroke="#4d4d4d" stroke-miterlimit="10" stroke-width="4"/>
        <line x1="83.88" y1="11.12" x2="46.12" y2="48.88" fill="none" stroke="#4d4d4d" stroke-miterlimit="10" stroke-width="4"/>
        <line x1="93.88" y1="11.12" x2="56.12" y2="48.88" fill="none" stroke="#4d4d4d" stroke-miterlimit="10" stroke-width="4"/>
      </g>
      <g>
        <line x1="3.88" y1="11.12" x2="-33.88" y2="48.88" fill="none" stroke="#4d4d4d" stroke-miterlimit="10" stroke-width="4"/>
        <line x1="13.88" y1="11.12" x2="-23.88" y2="48.88" fill="none" stroke="#4d4d4d" stroke-miterlimit="10" stroke-width="4"/>
      </g>
      <g>
        <line x1="103.88" y1="-18.88" x2="66.12" y2="18.88" fill="none" stroke="#4d4d4d" stroke-miterlimit="10" stroke-width="4"/>
        <line x1="113.88" y1="-18.88" x2="76.12" y2="18.88" fill="none" stroke="#4d4d4d" stroke-miterlimit="10" stroke-width="4"/>
      </g>
      <g>
        <line x1="23.88" y1="-18.88" x2="-13.88" y2="18.88" fill="none" stroke="#4d4d4d" stroke-miterlimit="10" stroke-width="4"/>
        <line x1="33.88" y1="-18.88" x2="-3.88" y2="18.88" fill="none" stroke="#4d4d4d" stroke-miterlimit="10" stroke-width="4"/>
        <line x1="43.88" y1="-18.88" x2="6.12" y2="18.88" fill="none" stroke="#4d4d4d" stroke-miterlimit="10" stroke-width="4"/>
        <line x1="53.88" y1="-18.88" x2="16.12" y2="18.88" fill="none" stroke="#4d4d4d" stroke-miterlimit="10" stroke-width="4"/>
        <line x1="63.88" y1="-18.88" x2="26.12" y2="18.88" fill="none" stroke="#4d4d4d" stroke-miterlimit="10" stroke-width="4"/>
        <line x1="73.88" y1="-18.88" x2="36.12" y2="18.88" fill="none" stroke="#4d4d4d" stroke-miterlimit="10" stroke-width="4"/>
        <line x1="83.88" y1="-18.88" x2="46.12" y2="18.88" fill="none" stroke="#4d4d4d" stroke-miterlimit="10" stroke-width="4"/>
        <line x1="93.88" y1="-18.88" x2="56.12" y2="18.88" fill="none" stroke="#4d4d4d" stroke-miterlimit="10" stroke-width="4"/>
      </g>
      <g>
        <line x1="3.88" y1="-18.88" x2="-33.88" y2="18.88" fill="none" stroke="#4d4d4d" stroke-miterlimit="10" stroke-width="4"/>
        <line x1="13.88" y1="-18.88" x2="-23.88" y2="18.88" fill="none" stroke="#4d4d4d" stroke-miterlimit="10" stroke-width="4"/>
      </g>
    </pattern>
  </defs>
  <g id="cell">
    <g opacity="0.2">
      <text transform="translate(366.18 111.16) rotate(90)" font-size="20" fill="#fff" font-family="ISL_FADETOBLAK, ISL_FADE TO BLAK">cell mk i</text>
    </g>
    <line x1="359.18" y1="223.65" x2="359.18" y2="111.16" fill="none" stroke="#ffea4f" stroke-miterlimit="10" opacity="0.3"/>
    <g>
      <rect x="17.18" width="2.35" height="5.65" fill="#ffea4f" opacity="0.3"/>
      <g opacity="0.2">
        <polyline points="24.33 5.65 354.59 5.65 371.53 22.59 371.53 61.41" fill="none" stroke="#4d4d4d" stroke-miterlimit="10"/>
        <polygon points="39.83 0 24.33 0 24.33 5.65 48.03 5.65 39.83 0" fill="#4d4d4d"/>
      </g>
      <rect x="317.16" width="31.2" height="2.82" fill="#4d4d4d" opacity="0.3"/>
      <rect x="364.76" y="84.25" width="13.52" height="2.82" fill="#111" stroke="#111" stroke-miterlimit="10" opacity="0.2"/>
      <rect x="364.76" y="93.88" width="13.52" height="2.43" fill="#d4d4d4" stroke="#d4d4d4" stroke-miterlimit="10" opacity="0.1"/>
      <rect x="364.76" y="91.99" width="13.52" height="0.25" fill="#d4d4d4" stroke="#d4d4d4" stroke-miterlimit="10" opacity="0.2"/>
      <rect x="364.76" y="88.82" width="13.52" height="0.69" fill="#d4d4d4" stroke="#d4d4d4" stroke-miterlimit="10" opacity="0.1"/>
      <rect x="282.52" width="31.2" height="2.82" fill="#ffea4f" opacity="0.3"/>
      <g opacity="0.2">
        <rect x="364.76" y="67.76" width="13.52" height="13.52" fill="none" stroke="#fff" stroke-miterlimit="10"/>
        <line x1="364.76" y1="67.76" x2="378.29" y2="81.29" fill="none" stroke="#fff" stroke-miterlimit="10"/>
      </g>
      <polyline points="58 13.41 32.59 13.41 17 29 17 49.88" fill="none" stroke="#fff" stroke-miterlimit="10" opacity="0.2"/>
      <polygon points="27.27 12.73 16.33 12.73 16.33 23.68 27.27 12.73" fill="#fff" opacity="0.1"/>
      <line x1="88.12" y1="13.41" x2="138.94" y2="13.41" fill="none" stroke="#fff" stroke-miterlimit="10" opacity="0.2"/>
      <polygon points="347.28 21.16 354.71 28.59 354.71 21.16 347.28 21.16" fill="#ffea4f" opacity="0.3"/>
      <line x1="378.69" y1="98.38" x2="364.36" y2="98.38" fill="none" stroke="#ffea4f" stroke-miterlimit="10" opacity="0.3"/>
    </g>
    <g>
      <rect x="1125.68" y="-12.89" width="2.35" height="5.65" transform="translate(1487.29 360.04) rotate(180)" fill="#ffea4f" opacity="0.3"/>
      <g opacity="0.2">
        <polyline points="354.46 367.28 24.2 367.28 7.26 350.34 7.26 311.51" fill="none" stroke="#4d4d4d" stroke-miterlimit="10"/>
        <polygon points="338.96 372.93 354.46 372.93 354.46 367.28 330.75 367.28 338.96 372.93" fill="#4d4d4d"/>
      </g>
      <rect x="796.86" y="-10.07" width="31.2" height="2.82" transform="translate(858.49 362.86) rotate(180)" fill="#4d4d4d" opacity="0.3"/>
      <rect x="766.93" y="-94.32" width="13.52" height="2.82" transform="translate(780.95 194.36) rotate(180)" fill="#111" stroke="#111" stroke-miterlimit="10" opacity="0.2"/>
      <rect x="766.93" y="-103.55" width="13.52" height="2.43" transform="translate(780.95 175.49) rotate(180)" fill="#d4d4d4" stroke="#d4d4d4" stroke-miterlimit="10" opacity="0.1"/>
      <rect x="766.93" y="-99.48" width="13.52" height="0.25" transform="translate(780.95 181.46) rotate(180)" fill="#d4d4d4" stroke="#d4d4d4" stroke-miterlimit="10" opacity="0.2"/>
      <rect x="766.93" y="-96.76" width="13.52" height="0.69" transform="translate(780.95 187.35) rotate(180)" fill="#d4d4d4" stroke="#d4d4d4" stroke-miterlimit="10" opacity="0.1"/>
      <rect x="831.5" y="-10.07" width="31.2" height="2.82" transform="translate(927.76 362.86) rotate(180)" fill="#ffea4f" opacity="0.3"/>
      <g opacity="0.2">
        <rect x="766.93" y="-88.53" width="13.52" height="13.52" transform="translate(780.95 216.63) rotate(180)" fill="none" stroke="#fff" stroke-miterlimit="10"/>
        <line x1="14.02" y1="305.16" x2="0.5" y2="291.64" fill="none" stroke="#fff" stroke-miterlimit="10"/>
      </g>
      <polyline points="320.78 359.51 346.19 359.51 361.78 343.93 361.78 323.04" fill="none" stroke="#fff" stroke-miterlimit="10" opacity="0.2"/>
      <polygon points="351.52 360.19 362.46 360.19 362.46 349.25 351.52 360.19" fill="#fff" opacity="0.1"/>
      <line x1="290.67" y1="359.51" x2="239.84" y2="359.51" fill="none" stroke="#fff" stroke-miterlimit="10" opacity="0.2"/>
      <polygon points="31.5 351.77 24.07 344.34 24.07 351.77 31.5 351.77" fill="#ffea4f" opacity="0.3"/>
      <line x1="0.09" y1="274.54" x2="14.43" y2="274.54" fill="none" stroke="#ffea4f" stroke-miterlimit="10" opacity="0.3"/>
    </g>
    <polygon points="345.41 21.28 33.51 21.28 24.33 30.46 24.33 342.37 33.51 351.55 345.41 351.55 354.59 342.37 354.59 30.46 345.41 21.28" opacity="0.1" fill="url(#Unnamed_Pattern)"/>
    <polyline points="7.26 134.59 13.23 134.59 20.66 142.01 20.66 249.66 12.16 258.16 7 258.16" fill="none" stroke="#fff" stroke-miterlimit="10" opacity="0.2"/>
    <g opacity="0.3">
      <text transform="translate(17 245.53) rotate(-90)" font-size="20" fill="#ffea4f" font-family="ISL_FADETOBLAK, ISL_FADE TO BLAK">square</text>
    </g>
    <line x1="1.53" y1="258.16" x2="1.53" y2="134.59" fill="none" stroke="#fff" stroke-miterlimit="10" stroke-dasharray="4" opacity="0.1"/>
    <g opacity="0.2">
      <rect x="773.43" y="-235.32" width="10" height="10" transform="translate(242.32 928.29) rotate(-90)" fill="none" stroke="#fff" stroke-miterlimit="10" stroke-width="0.75"/>
      <line x1="7" y1="154.85" x2="17" y2="144.85" fill="none" stroke="#fff" stroke-miterlimit="10" stroke-width="0.75"/>
    </g>
    <polygon points="7.53 132.78 13.18 132.78 10.35 129.96 7.53 132.78" fill="#ffea4f" opacity="0.3"/>
    <polygon points="13.18 70.04 7.53 70.04 10.35 72.86 13.18 70.04" fill="#ffea4f" opacity="0.3"/>
    <line x1="10.35" y1="126.01" x2="10.35" y2="77.54" fill="none" stroke="#ffea4f" stroke-miterlimit="10" stroke-width="0.75" opacity="0.5"/>
  </g>
</svg>
