<svg xmlns="http://www.w3.org/2000/svg" viewBox="0 0 1907.03 892.38">
  <g>
    <g>
      <g>
        <g opacity="0.25">
          <polygon points="34.13 284.35 3.05 284.35 3.05 237.88 21.31 219.53 21.31 143.06 34.13 143.06 34.13 284.35"
            fill="#4d4d4d" />
        </g>
        <g opacity="0.75">
          <polyline points="51.48 295.54 40.91 284.96 40.91 143.06" fill="none" stroke="#4d4d4d"
            stroke-miterlimit="10" />
        </g>
        <g opacity="0.25">
          <polygon points="33.63 503.6 2.55 503.6 2.55 550.07 20.81 568.42 20.81 644.9 33.63 644.9 33.63 503.6"
            fill="#4d4d4d" />
        </g>
        <g opacity="0.75">
          <polyline points="50.98 492.42 40.41 502.99 40.41 644.9" fill="none" stroke="#4d4d4d"
            stroke-miterlimit="10" />
        </g>
        <g opacity="0.5">
          <polyline points="2.55 561.13 14.05 572.63 14.05 763.9" fill="none" stroke="#c6b63f" stroke-miterlimit="10" />
        </g>
        <polyline points="733.93 822.31 935.43 822.31 940.68 817.05" fill="none" stroke="#4d4d4d" stroke-miterlimit="10"
          opacity="0.25" />
        <g opacity="0.25">
          <polyline points="953.52 883.32 787.22 883.32 699.34 822.31 156.25 822.31" fill="none" stroke="#4d4d4d"
            stroke-miterlimit="10" />
          <polygon points="182.06 829.72 156.25 829.72 156.25 822.31 190.33 822.31 182.06 829.72" fill="#4d4d4d" />
        </g>
        <rect x="145.73" y="822.31" width="4" height="6.91" fill="none" stroke="#4d4d4d" stroke-miterlimit="10" />
        <rect x="137.68" y="822.31" width="4" height="6.91" fill="none" stroke="#4d4d4d" stroke-miterlimit="10"
          opacity="0.5" />
        <rect x="129.62" y="822.31" width="4" height="6.91" fill="none" stroke="#4d4d4d" stroke-miterlimit="10"
          opacity="0.1" />
        <g>
          <polygon points="688.01 830.96 725.24 856.81 733.71 856.81 696.48 830.96 688.01 830.96" fill="#c6b63f"
            stroke="#c6b63f" stroke-miterlimit="10" opacity="0.75" />
          <polygon points="674.42 830.96 711.65 856.81 720.13 856.81 682.89 830.96 674.42 830.96" fill="#b4a539"
            stroke="#b4a539" stroke-miterlimit="10" opacity="0.68" />
          <polygon points="660.83 830.96 698.06 856.81 706.54 856.81 669.31 830.96 660.83 830.96" fill="#a29534"
            stroke="#a29534" stroke-miterlimit="10" opacity="0.61" />
          <polygon points="647.25 830.96 684.48 856.81 692.95 856.81 655.72 830.96 647.25 830.96" fill="#90842e"
            stroke="#90842e" stroke-miterlimit="10" opacity="0.55" />
          <polygon points="633.66 830.96 670.89 856.81 679.36 856.81 642.13 830.96 633.66 830.96" fill="#7e7428"
            stroke="#7e7428" stroke-miterlimit="10" opacity="0.48" />
          <polygon points="620.07 830.96 657.3 856.81 665.77 856.81 628.54 830.96 620.07 830.96" fill="#6c6322"
            stroke="#6c6322" stroke-miterlimit="10" opacity="0.41" />
          <polygon points="606.48 830.96 643.71 856.81 652.18 856.81 614.95 830.96 606.48 830.96" fill="#5a531d"
            stroke="#5a531d" stroke-miterlimit="10" opacity="0.34" />
          <polygon points="592.89 830.96 630.12 856.81 638.6 856.81 601.37 830.96 592.89 830.96" fill="#484217"
            stroke="#484217" stroke-miterlimit="10" opacity="0.27" />
          <polygon points="579.3 830.96 616.54 856.81 625.01 856.81 587.78 830.96 579.3 830.96" fill="#363211"
            stroke="#363211" stroke-miterlimit="10" opacity="0.2" />
          <polygon points="565.72 830.96 602.95 856.81 611.42 856.81 574.19 830.96 565.72 830.96" fill="#24210b"
            stroke="#24210b" stroke-miterlimit="10" opacity="0.14" />
          <polygon points="552.13 830.96 589.36 856.81 597.83 856.81 560.6 830.96 552.13 830.96" fill="#121106"
            stroke="#121106" stroke-miterlimit="10" opacity="0.07" />
          <polygon points="538.54 830.96 575.77 856.81 584.25 856.81 547.01 830.96 538.54 830.96" stroke="#000"
            stroke-miterlimit="10" opacity="0" />
        </g>
        <rect x="102.01" y="817.18" width="12.19" height="1.29" fill="#c6b63f" stroke="#c6b63f" stroke-miterlimit="10"
          opacity="0.75" />
        <rect x="298.38" y="831.24" width="1.29" height="5.33" fill="#c6b63f" stroke="#c6b63f" stroke-miterlimit="10"
          opacity="0.75" />
        <rect x="733.93" y="824.79" width="5.33" fill="#c6b63f" stroke="#c6b63f" stroke-miterlimit="10" />
        <rect x="47.93" y="134.75" width="5.18" height="21.37" fill="none" stroke="#c6b63f" stroke-miterlimit="10"
          opacity="0.5" />
        <rect x="47.93" y="162.39" width="5.18" height="21.37" fill="none" stroke="#fff" stroke-miterlimit="10"
          opacity="0.4" />
        <polyline points="48.66 98.85 0.41 50.59 48.66 98.85 48.66 126.48" fill="none" stroke="#c6b63f"
          stroke-miterlimit="10" opacity="0.75" />
        <path d="M7.08,135.77" transform="translate(-6.67 -94)" fill="none" stroke="#c6b63f" stroke-miterlimit="10" />
        <path d="M7.08,144.59" transform="translate(-6.67 -94)" fill="none" stroke="#c6b63f" stroke-miterlimit="10" />
        <path d="M7.08,144.59" transform="translate(-6.67 -94)" fill="none" stroke="#c6b63f" stroke-miterlimit="10" />
        <line x1="48.9" y1="82.78" x2="0.35" y2="34.24" fill="none" stroke="#fff" stroke-miterlimit="10"
          opacity="0.4" />
        <polyline points="14.05 774.37 30.83 791.14 30.83 817.18" fill="none" stroke="#fff" stroke-miterlimit="10"
          opacity="0.1" />
        <line x1="39.52" y1="817.18" x2="39.52" y2="829.22" fill="none" stroke="#fff" stroke-miterlimit="10"
          stroke-width="2" opacity="0.4" />
        <line x1="44.52" y1="817.18" x2="44.52" y2="829.22" fill="none" stroke="#fff" stroke-miterlimit="10"
          stroke-width="2" opacity="0.4" />
        <line x1="793.65" y1="891.88" x2="805.7" y2="891.88" fill="none" stroke="#4d4d4d" stroke-miterlimit="10"
          opacity="0.1" />
        <g>
          <g opacity="0.1">
            <polygon points="3.05 229.7 15.87 216.82 15.87 208.89 3.06 221.69 3.05 229.7" fill="#4d4d4d" />
          </g>
          <g opacity="0.09">
            <polygon points="3.05 220.3 15.87 207.41 15.87 199.48 3.06 212.29 3.05 220.3" fill="#4d4d4d" />
          </g>
          <g opacity="0.07">
            <polygon points="3.05 210.9 15.87 198.01 15.87 190.08 3.06 202.89 3.05 210.9" fill="#4d4d4d" />
          </g>
          <g opacity="0.06">
            <polygon points="3.05 201.49 15.87 188.6 15.87 180.67 3.06 193.48 3.05 201.49" fill="#4d4d4d" />
          </g>
          <g opacity="0.04">
            <polygon points="3.05 192.09 15.87 179.2 15.87 171.27 3.06 184.08 3.05 192.09" fill="#4d4d4d" />
          </g>
          <g opacity="0.03">
            <polygon points="3.05 182.68 15.87 169.79 15.87 161.87 3.06 174.67 3.05 182.68" fill="#4d4d4d" />
          </g>
          <g opacity="0.01">
            <polygon points="3.05 173.28 15.87 160.39 15.87 152.46 3.06 165.27 3.05 173.28" fill="#4d4d4d" />
          </g>
          <g opacity="0">
            <polygon points="3.05 163.87 15.87 150.99 15.87 143.06 3.06 155.86 3.05 163.87" fill="#4d4d4d" />
          </g>
        </g>
        <polyline points="736.59 866.85 614.99 866.85 599.85 881.99" fill="none" stroke="#4d4d4d" stroke-miterlimit="10"
          opacity="0.1" />
        <polyline points="538.54 881.99 556.1 864.43 524.21 832.54" fill="none" stroke="#4d4d4d" stroke-miterlimit="10"
          opacity="0.05" />
        <polyline points="522.6 881.99 540.16 864.43 508.27 832.54" fill="none" stroke="#4d4d4d" stroke-miterlimit="10"
          opacity="0.02" />
        <g opacity="0.1">
          <line x1="953.52" y1="0.5" x2="0.35" y2="0.5" fill="none" stroke="#4d4d4d" stroke-miterlimit="10" />
        </g>
      </g>
      <g>
        <g opacity="0.25">
          <polygon
            points="1872.9 284.35 1903.99 284.35 1903.99 237.88 1885.72 219.53 1885.72 143.06 1872.9 143.06 1872.9 284.35"
            fill="#4d4d4d" />
        </g>
        <g opacity="0.75">
          <polyline points="1855.56 295.54 1866.13 284.96 1866.13 143.06" fill="none" stroke="#4d4d4d"
            stroke-miterlimit="10" />
        </g>
        <g opacity="0.25">
          <polygon
            points="1873.4 503.6 1904.49 503.6 1904.49 550.07 1886.22 568.42 1886.22 644.9 1873.4 644.9 1873.4 503.6"
            fill="#4d4d4d" />
        </g>
        <g opacity="0.75">
          <polyline points="1856.06 492.42 1866.63 502.99 1866.63 644.9" fill="none" stroke="#4d4d4d"
            stroke-miterlimit="10" />
        </g>
        <g opacity="0.5">
          <polyline points="1904.49 561.13 1892.98 572.63 1892.98 763.9" fill="none" stroke="#c6b63f"
            stroke-miterlimit="10" />
        </g>
        <polyline points="1173.11 822.31 971.61 822.31 966.35 817.05" fill="none" stroke="#4d4d4d"
          stroke-miterlimit="10" opacity="0.25" />
        <g opacity="0.25">
          <polyline points="953.52 883.32 1119.81 883.32 1207.69 822.31 1750.79 822.31" fill="none" stroke="#4d4d4d"
            stroke-miterlimit="10" />
          <polygon points="1724.97 829.72 1750.79 829.72 1750.79 822.31 1716.71 822.31 1724.97 829.72" fill="#4d4d4d" />
        </g>
        <rect x="1757.3" y="822.31" width="4" height="6.91" fill="none" stroke="#4d4d4d" stroke-miterlimit="10" />
        <rect x="1765.36" y="822.31" width="4" height="6.91" fill="none" stroke="#4d4d4d" stroke-miterlimit="10"
          opacity="0.5" />
        <rect x="1773.42" y="822.31" width="4" height="6.91" fill="none" stroke="#4d4d4d" stroke-miterlimit="10"
          opacity="0.1" />
        <g>
          <polygon points="1219.02 830.96 1181.79 856.81 1173.32 856.81 1210.55 830.96 1219.02 830.96" fill="#c6b63f"
            stroke="#c6b63f" stroke-miterlimit="10" opacity="0.75" />
          <polygon points="1232.61 830.96 1195.38 856.81 1186.91 856.81 1224.14 830.96 1232.61 830.96" fill="#b4a539"
            stroke="#b4a539" stroke-miterlimit="10" opacity="0.68" />
          <polygon points="1246.2 830.96 1208.97 856.81 1200.5 856.81 1237.73 830.96 1246.2 830.96" fill="#a29534"
            stroke="#a29534" stroke-miterlimit="10" opacity="0.61" />
          <polygon points="1259.79 830.96 1222.56 856.81 1214.08 856.81 1251.32 830.96 1259.79 830.96" fill="#90842e"
            stroke="#90842e" stroke-miterlimit="10" opacity="0.55" />
          <polygon points="1273.38 830.96 1236.14 856.81 1227.67 856.81 1264.9 830.96 1273.38 830.96" fill="#7e7428"
            stroke="#7e7428" stroke-miterlimit="10" opacity="0.48" />
          <polygon points="1286.96 830.96 1249.73 856.81 1241.26 856.81 1278.49 830.96 1286.96 830.96" fill="#6c6322"
            stroke="#6c6322" stroke-miterlimit="10" opacity="0.41" />
          <polygon points="1300.55 830.96 1263.32 856.81 1254.85 856.81 1292.08 830.96 1300.55 830.96" fill="#5a531d"
            stroke="#5a531d" stroke-miterlimit="10" opacity="0.34" />
          <polygon points="1314.14 830.96 1276.91 856.81 1268.44 856.81 1305.67 830.96 1314.14 830.96" fill="#484217"
            stroke="#484217" stroke-miterlimit="10" opacity="0.27" />
          <polygon points="1327.73 830.96 1290.5 856.81 1282.02 856.81 1319.26 830.96 1327.73 830.96" fill="#363211"
            stroke="#363211" stroke-miterlimit="10" opacity="0.2" />
          <polygon points="1341.32 830.96 1304.09 856.81 1295.61 856.81 1332.84 830.96 1341.32 830.96" fill="#24210b"
            stroke="#24210b" stroke-miterlimit="10" opacity="0.14" />
          <polygon points="1354.9 830.96 1317.67 856.81 1309.2 856.81 1346.43 830.96 1354.9 830.96" fill="#121106"
            stroke="#121106" stroke-miterlimit="10" opacity="0.07" />
          <polygon points="1368.49 830.96 1331.26 856.81 1322.79 856.81 1360.02 830.96 1368.49 830.96" stroke="#000"
            stroke-miterlimit="10" opacity="0" />
        </g>
        <rect x="1792.83" y="817.18" width="12.19" height="1.29" fill="#c6b63f" stroke="#c6b63f" stroke-miterlimit="10"
          opacity="0.75" />
        <rect x="1607.36" y="831.24" width="1.29" height="5.33" fill="#c6b63f" stroke="#c6b63f" stroke-miterlimit="10"
          opacity="0.75" />
        <rect x="1167.77" y="824.79" width="5.33" fill="#c6b63f" stroke="#c6b63f" stroke-miterlimit="10" />
        <rect x="1853.93" y="134.75" width="5.18" height="21.37" fill="none" stroke="#c6b63f" stroke-miterlimit="10"
          opacity="0.5" />
        <rect x="1853.93" y="162.39" width="5.18" height="21.37" fill="none" stroke="#fff" stroke-miterlimit="10"
          opacity="0.4" />
        <polyline points="1858.37 98.85 1906.63 50.59 1858.37 98.85 1858.37 126.48" fill="none" stroke="#c6b63f"
          stroke-miterlimit="10" opacity="0.75" />
        <path d="M1913.3,135.77" transform="translate(-6.67 -94)" fill="none" stroke="#c6b63f" stroke-miterlimit="10" />
        <path d="M1913.3,144.59" transform="translate(-6.67 -94)" fill="none" stroke="#c6b63f" stroke-miterlimit="10" />
        <path d="M1913.3,144.59" transform="translate(-6.67 -94)" fill="none" stroke="#c6b63f" stroke-miterlimit="10" />
        <line x1="1858.14" y1="82.78" x2="1906.68" y2="34.24" fill="none" stroke="#fff" stroke-miterlimit="10"
          opacity="0.4" />
        <polyline points="1892.98 774.37 1876.2 791.14 1876.2 817.18" fill="none" stroke="#fff" stroke-miterlimit="10"
          opacity="0.1" />
        <line x1="1867.51" y1="817.18" x2="1867.51" y2="829.22" fill="none" stroke="#fff" stroke-miterlimit="10"
          stroke-width="2" opacity="0.4" />
        <line x1="1862.52" y1="817.18" x2="1862.52" y2="829.22" fill="none" stroke="#fff" stroke-miterlimit="10"
          stroke-width="2" opacity="0.4" />
        <line x1="1113.38" y1="891.88" x2="1101.34" y2="891.88" fill="none" stroke="#4d4d4d" stroke-miterlimit="10"
          opacity="0.1" />
        <g>
          <g opacity="0.1">
            <polygon points="1903.99 229.7 1891.16 216.82 1891.16 208.89 1903.97 221.69 1903.99 229.7" fill="#4d4d4d" />
          </g>
          <g opacity="0.09">
            <polygon points="1903.99 220.3 1891.16 207.41 1891.16 199.48 1903.97 212.29 1903.99 220.3" fill="#4d4d4d" />
          </g>
          <g opacity="0.07">
            <polygon points="1903.99 210.9 1891.16 198.01 1891.16 190.08 1903.97 202.89 1903.99 210.9" fill="#4d4d4d" />
          </g>
          <g opacity="0.06">
            <polygon points="1903.99 201.49 1891.16 188.6 1891.16 180.67 1903.97 193.48 1903.99 201.49"
              fill="#4d4d4d" />
          </g>
          <g opacity="0.04">
            <polygon points="1903.99 192.09 1891.16 179.2 1891.16 171.27 1903.97 184.08 1903.99 192.09"
              fill="#4d4d4d" />
          </g>
          <g opacity="0.03">
            <polygon points="1903.99 182.68 1891.16 169.79 1891.16 161.87 1903.97 174.67 1903.99 182.68"
              fill="#4d4d4d" />
          </g>
          <g opacity="0.01">
            <polygon points="1903.99 173.28 1891.16 160.39 1891.16 152.46 1903.97 165.27 1903.99 173.28"
              fill="#4d4d4d" />
          </g>
          <g opacity="0">
            <polygon points="1903.99 163.87 1891.16 150.99 1891.16 143.06 1903.97 155.86 1903.99 163.87"
              fill="#4d4d4d" />
          </g>
        </g>
        <polyline points="1170.44 866.85 1292.05 866.85 1307.19 881.99" fill="none" stroke="#4d4d4d"
          stroke-miterlimit="10" opacity="0.1" />
        <polyline points="1368.49 881.99 1350.93 864.43 1382.82 832.54" fill="none" stroke="#4d4d4d"
          stroke-miterlimit="10" opacity="0.05" />
        <polyline points="1384.44 881.99 1366.88 864.43 1398.77 832.54" fill="none" stroke="#4d4d4d"
          stroke-miterlimit="10" opacity="0.02" />
        <g opacity="0.1">
          <line x1="953.52" y1="0.5" x2="1906.68" y2="0.5" fill="none" stroke="#4d4d4d" stroke-miterlimit="10" />
        </g>
      </g>
    </g>
    <g opacity="0.5">
      <text transform="translate(1884.67 762.44) rotate(-90)" font-size="20" fill="#fff"
        font-family="ISL_FADETOBLAK, ISL_FADE TO BLAK">sci-fi 001</text>
    </g>
    <g opacity="0.5">
      <text transform="translate(21.78 650.66) rotate(90)" font-size="20" fill="#fff"
        font-family="ISL_FADETOBLAK, ISL_FADE TO BLAK">modeling</text>
    </g>
  </g>
</svg>