<svg id="Слой_1" data-name="Слой 1" xmlns="http://www.w3.org/2000/svg" viewBox="0 0 56.21 62.71">
  <g id="logo">
    <g>
      <polygon
        points="41.35 18.21 42.49 19.37 42.49 23.14 42.85 22.78 46.95 22.78 49.69 25.52 50.11 25.09 50.11 23.89 51.26 22.74 52.46 22.74 53.5 21.71 53.5 20.7 40.82 8.02 40.82 6.7 34.13 0 32.87 0 32.87 7.13 41.35 15.61 41.35 18.21"
        fill="#fff" opacity="0.5" />
      <polygon
        points="55.18 32.9 52.67 32.9 49.19 29.42 49.19 26.77 49.19 25.81 46.58 23.14 43.13 23.14 39.01 27.26 39.01 29.61 34.86 33.77 32.5 33.77 29.13 37.15 29.13 38.34 31.92 41.14 33.12 41.14 34.89 42.9 40.76 37.03 44.58 37.03 45.71 38.22 51.91 38.22 53.1 37.03 53.1 37.03 56.21 33.93 55.18 32.9"
        fill="#fff" opacity="0.5" />
      <polygon
        points="38.77 40.15 36.3 42.62 34.4 44.52 34.22 44.34 34.22 43.56 32.69 42.03 31.64 42.03 29.21 39.61 28.92 39.61 28.87 39.61 28.15 39.61 28.06 39.61 27.34 39.61 27.29 39.61 26.99 39.61 24.57 42.03 23.52 42.03 21.99 43.56 21.99 44.34 21.81 44.52 19.91 42.62 17.44 40.15 17.44 45.11 14.5 48.08 14.5 51.12 15.95 52.57 15.95 53.75 24.91 62.71 26.14 62.71 26.84 62.01 28.06 62.01 28.15 62.01 29.37 62.01 30.07 62.71 31.3 62.71 40.26 53.75 40.26 52.57 41.71 51.12 41.71 48.08 38.77 45.11 38.77 40.15"
        fill="#fff" opacity="0.5" />
      <polygon
        points="4.95 22.74 6.1 23.89 6.1 25.09 6.52 25.52 9.25 22.78 13.36 22.78 13.72 23.14 13.72 19.37 14.86 18.21 14.86 15.61 23.34 7.13 23.34 0 22.08 0 15.38 6.7 15.38 8.02 2.71 20.7 2.71 21.71 3.75 22.74 4.95 22.74"
        fill="#fff" opacity="0.5" />
      <polygon
        points="21.32 42.9 23.08 41.14 24.29 41.14 27.08 38.34 27.08 37.15 23.7 33.77 21.35 33.77 17.2 29.61 17.2 27.26 13.08 23.14 9.63 23.14 7.02 25.81 7.02 26.77 7.02 29.42 3.54 32.9 1.03 32.9 0 33.93 3.1 37.03 3.1 37.03 4.3 38.22 10.5 38.22 11.63 37.03 15.45 37.03 21.32 42.9"
        fill="#fff" opacity="0.5" />
      <polygon
        points="15.05 18.54 14.15 19.44 14.15 23.14 27.31 36.3 27.31 36.31 27.32 36.31 28.1 37.1 28.1 37.1 28.1 37.1 28.9 36.31 28.9 36.3 42.06 23.14 42.06 19.44 41.16 18.54 37.47 18.54 29.22 10.3 28.13 10.3 28.13 10.3 28.08 10.3 28.08 10.3 26.98 10.3 18.74 18.54 15.05 18.54"
        fill="#fff" opacity="0.5" />
    </g>
  </g>
</svg>