<svg id="auth_frame" xmlns="http://www.w3.org/2000/svg" viewBox="0 0 135.32 39.18">
  <g id="btn_browse">
    <path id="bg" d="M985.15,532.53v-5.16H965.8l-2.71-2.71H928.8l-1.47,1.47h-6.94l-4-4H895.64l-2.53,2.53-4,4h-27v2.95l5.55,5.55h0l6.58,6.58-1.63,1.62-4.95-4.95v10.48h34.74l-3.68-3.69,1.62-1.62,5.31,5.31h0l4.51,4.53h2.63l2.42-2.43h7.28l2.41,2.42h1.76l-2.42-2.43,1.62-1.62,4.05,4.05h1.42L929,552.93l1.62-1.62,4,4.05h1.42l-2.42-2.43,1.62-1.62,4,4.05h1.42l-2.43-2.43,1.63-1.62,4.05,4.05h1.42L943,552.93l1.63-1.62,4,4.05H977.8l7.35-7.94V545.7L982.44,543v-7.74ZM908.25,529l1.86-1.86h8.54l1.86,1.87Z" transform="translate(-857.75 -522.03)" fill="#111"/>
    <g id="placeholder">
      <text transform="translate(18.92 22.54)" font-size="22" fill="#fff" font-family="ISL_FADETOBLAK, ISL_FADE TO BLAK" opacity="0.75">browse</text>
    </g>
    <polyline points="2.14 11.54 7.69 17.09 7.69 28.98" fill="none" stroke="#4d4d4d" stroke-miterlimit="10" stroke-width="0.75"/>
    <polyline points="96.43 35.52 121.14 35.52 134.22 22.43" fill="none" stroke="#4d4d4d" stroke-miterlimit="10" stroke-width="0.75" opacity="0.75"/>
    <polyline points="37.29 30.57 45.93 30.57 54.27 38.91" fill="none" stroke="#c6b63f" stroke-miterlimit="10" stroke-width="0.75" opacity="0.75"/>
    <polyline points="127.14 3.93 108.92 3.93 106.18 1.19 85.63 1.19" fill="none" stroke="#4d4d4d" stroke-miterlimit="10" stroke-width="0.75" opacity="0.25"/>
    <circle cx="103.4" cy="27.28" r="0.97" fill="#4d4d4d" opacity="0.5"/>
    <line x1="125.8" y1="7.46" x2="117.21" y2="7.46" fill="none" stroke="#010101" stroke-miterlimit="10" stroke-width="0.75"/>
    <line x1="125.8" y1="9.49" x2="117.21" y2="9.49" fill="none" stroke="#010101" stroke-miterlimit="10" stroke-width="0.75"/>
    <line x1="128.96" y1="3.93" x2="135.32" y2="3.93" fill="none" stroke="#4d4d4d" stroke-miterlimit="10" stroke-width="0.75" opacity="0.5"/>
    <g opacity="0.75">
      <rect x="125.96" y="13.99" width="6" height="6" fill="none" stroke="#c6b63f" stroke-miterlimit="10" stroke-width="0.75"/>
      <line x1="125.96" y1="13.99" x2="131.96" y2="19.99" fill="none" stroke="#c6b63f" stroke-miterlimit="10" stroke-width="0.75"/>
    </g>
    <text transform="translate(6.39 5.1)" opacity="0.75" font-size="10" fill="#c6b63f" font-family="ISL_FADETOBLAK, ISL_FADE TO BLAK">sb-2</text>
    <polygon points="118.61 31.5 125.54 24.56 108.9 24.56 103.84 29.63 90.02 29.63 91.9 31.5 118.61 31.5" fill="#161616"/>
    <polyline points="68.73 27.28 82.38 27.28 85.24 30.15" fill="none" stroke="#4d4d4d" stroke-miterlimit="10" stroke-width="0.75" opacity="0.5"/>
    <path d="M963.09,524.66H928.8l-1.47,1.47h-6.94l-4-4H895.64l-6.48,6.48v1.55h17.93l3-3h8.54l3,3h9.63l4.22-4.22h28.87Z" transform="translate(-857.75 -522.03)" fill="#1c1c1c"/>
    <line x1="67.85" y1="30.57" x2="73.39" y2="36.12" fill="none" stroke="#4d4d4d" stroke-miterlimit="10" stroke-width="0.75" opacity="0.1"/>
    <line x1="72.45" y1="30.57" x2="77.99" y2="36.12" fill="none" stroke="#4d4d4d" stroke-miterlimit="10" stroke-width="0.75" opacity="0.1"/>
    <line x1="77.18" y1="30.57" x2="82.73" y2="36.12" fill="none" stroke="#4d4d4d" stroke-miterlimit="10" stroke-width="0.75" opacity="0.1"/>
    <line x1="81.82" y1="30.57" x2="87.37" y2="36.12" fill="none" stroke="#4d4d4d" stroke-miterlimit="10" stroke-width="0.75" opacity="0.1"/>
    <line x1="86.54" y1="30.57" x2="92.08" y2="36.12" fill="none" stroke="#4d4d4d" stroke-miterlimit="10" stroke-width="0.75" opacity="0.1"/>
    <rect x="0.38" y="0.38" width="1.76" height="4.5" fill="none" stroke="#4d4d4d" stroke-miterlimit="10" stroke-width="0.75" opacity="0.5"/>
    <polygon points="14.91 26.88 12.5 30.04 17.33 30.04 14.91 26.88" fill="#1c1c1c"/>
    <line x1="84.32" y1="1.19" x2="80.08" y2="1.19" fill="none" stroke="#c6b63f" stroke-miterlimit="10" stroke-width="0.75" opacity="0.75"/>
  </g>
</svg>
