<svg id="Слой_1" data-name="Слой 1" xmlns="http://www.w3.org/2000/svg" viewBox="0 0 219.48 53.7">
  <g id="btn_exit">
    <g opacity="0.75">
      <text transform="translate(41.94 33.31)" font-size="30" fill="#c6b63f" font-family="ISL_FADETOBLAK, ISL_FADE TO BLAK">exit</text>
    </g>
    <path d="M976.62,401.45H757.14v41l12.68,12.68h206.8v-3.77l-8.86-8.86-9.71-9.71,2.08-2.08,7.63,7.63V416.22l8.86-8.86Zm-83.44,2.88,10.37,10.37v4.94l-15.23-15.23Zm10.28,29.6L884,452H777.86l-11.19-11.19V408.58l4-4,114.91-.27,18.1,18.1C903.58,426.94,903.54,429.39,903.46,433.93Z" transform="translate(-757.14 -401.45)" fill="#c6b63f" opacity="0.75"/>
    <polyline points="12.81 36.97 23.83 47.99 43.51 47.99" fill="none" stroke="#fff" stroke-miterlimit="10" stroke-width="0.75" opacity="0.5"/>
    <polyline points="139.86 17.2 143.92 21.26 143.92 29.91 132.87 40.96" fill="none" stroke="#fff" stroke-miterlimit="10" stroke-width="0.75" opacity="0.75"/>
    <g opacity="0.5">
      <g>
        <line x1="45.56" y1="47.99" x2="47.06" y2="47.99" fill="none" stroke="#fff" stroke-miterlimit="10" stroke-width="0.75"/>
        <line x1="49.73" y1="47.99" x2="64.38" y2="47.99" fill="none" stroke="#fff" stroke-miterlimit="10" stroke-width="0.75" stroke-dasharray="2.66 2.66"/>
        <line x1="65.71" y1="47.99" x2="67.21" y2="47.99" fill="none" stroke="#fff" stroke-miterlimit="10" stroke-width="0.75"/>
      </g>
    </g>
    <g opacity="0.75">
      <g>
        <line x1="26.86" y1="6.19" x2="28.36" y2="6.19" fill="none" stroke="#fff" stroke-miterlimit="10" stroke-width="0.75"/>
        <line x1="31.02" y1="6.19" x2="45.68" y2="6.19" fill="none" stroke="#fff" stroke-miterlimit="10" stroke-width="0.75" stroke-dasharray="2.66 2.66"/>
        <line x1="47.01" y1="6.19" x2="48.51" y2="6.19" fill="none" stroke="#fff" stroke-miterlimit="10" stroke-width="0.75"/>
      </g>
    </g>
    <g opacity="0.75">
      <g>
        <line x1="130.18" y1="7.63" x2="131.24" y2="8.69" fill="none" stroke="#fff" stroke-miterlimit="10" stroke-width="0.75"/>
        <line x1="133.27" y1="10.72" x2="136.32" y2="13.77" fill="none" stroke="#fff" stroke-miterlimit="10" stroke-width="0.75" stroke-dasharray="2.87 2.87"/>
        <line x1="137.33" y1="14.78" x2="138.39" y2="15.84" fill="none" stroke="#fff" stroke-miterlimit="10" stroke-width="0.75"/>
      </g>
    </g>
    <polyline points="125.92 42.87 140.41 28.38 140.41 23.01 125.33 7.93" fill="none" stroke="#fff" stroke-miterlimit="10" stroke-width="0.75" opacity="0.5"/>
    <g id="remove_x">
      <g id="sym_x" data-name="sym x">
        <polygon points="163.62 16.32 163.62 14.36 157.79 8.53 155.82 8.53 160.04 12.75 160.04 13.72 166.97 20.65 166.97 19.67 163.62 16.32" fill="#161616"/>
        <polygon points="195.1 41.57 195.08 42.93 196.91 44.78 198.46 44.76 195.1 41.57" fill="#161616"/>
        <polygon points="189.29 42.08 187.31 42.08 189.15 43.91 189.74 43.91 191.34 45.51 191.34 46.1 191.82 46.57 193.83 46.58 189.29 42.08" fill="#161616"/>
        <polygon points="181.02 35.27 182.5 36.71 182.5 35.24 177.11 29.91 176.85 29.91 181.02 34.08 181.02 35.27" fill="#161616"/>
        <path d="M955.58,446.19h-1.51l-1.8-1.81V443l-9.82-9.81v2.09l-.68-.67v-2.13l-2.93-2.88h-1.33l-4-4v-.52H933l-4-4.06v-1.76l-1.13-1.09-9.14-9.14-.88-.88H915.6l-.43.44H912.9l-.43-.44-.44-.44h-2.26l-.44.44,1.83,1.83,5.64,5.64v-1.32l-4.29-4.27h2.4l5.78,5.78v2l3.35,3.35v1.61l4.17,4.17h1.61l.75.76v.87l.43-.43,2.28,2.48v.76h1l5.36,5.36v2.65l1.89,1.89h1.15l1.51,1.51v.44l.31.32h2l4.48,4.48h3.39l.43.44H957l.44-.44Zm-30.69-28.52-7-7v-1.51l8.49,8.51Zm8.49,11.69a1.26,1.26,0,1,1,1.26-1.26A1.26,1.26,0,0,1,933.38,429.36Zm7.52,10.45-.61-.65v-2l.65.65Zm9.16,3-7-7v-1.51l8.49,8.53Zm3.54,5,.44-.44h2.27l.43.44Z" transform="translate(-757.14 -401.45)" fill="#1c1c1c"/>
      </g>
      <g id="sym_x-2" data-name="sym x">
        <polygon points="185.52 19.67 185.52 20.65 192.45 13.72 192.45 12.75 196.67 8.53 194.7 8.53 188.87 14.36 188.87 16.32 185.52 19.67" fill="#161616"/>
        <polygon points="154.02 44.76 155.57 44.78 157.41 42.93 157.39 41.57 154.02 44.76" fill="#161616"/>
        <polygon points="158.66 46.58 160.67 46.57 161.15 46.1 161.15 45.51 162.75 43.91 163.33 43.91 165.19 42.06 163.21 42.06 158.66 46.58" fill="#161616"/>
        <polygon points="171.47 34.08 175.64 29.91 175.37 29.91 169.99 35.24 169.99 36.71 171.47 35.27 171.47 34.08" fill="#161616"/>
        <path d="M957,407.74h-2.26l-.44.44-.43.44H951.6l-.44-.44H949l-.88.88-9.14,9.14-1.13,1.09v1.76l-4,4.06h-.5v.52l-4,4h-1.33L925,432.52v2.13l-.68.67v-2.09L914.5,443v1.34l-1.8,1.81h-1.51L909.33,448l.44.44H912l.43-.44h3.39l4.48-4.48h2l.3-.32v-.44l1.52-1.51h1.15l1.89-1.89v-2.65l5.36-5.36h1v-.76l2.28-2.48.43.43v-.87l.75-.76h1.61l4.17-4.17v-1.61l3.34-3.35v-2l5.79-5.78h2.4L950,414.33v1.32l5.64-5.64,1.83-1.83Zm-47,40.08.44-.44h2.27l.44.44Zm13.69-12-7,7-1.49,0,8.49-8.53Zm2.77,3.33-.61.65,0-2,.65-.65Zm6.9-9.8a1.26,1.26,0,1,1,1.26-1.26A1.26,1.26,0,0,1,933.38,429.36Zm15.5-18.69-7,7h-1.49l8.49-8.51Z" transform="translate(-757.14 -401.45)" fill="#1c1c1c"/>
      </g>
    </g>
    <polyline points="24.95 6.19 14.6 6.19 12.63 8.16 12.63 13.44" fill="none" stroke="#fff" stroke-miterlimit="10" stroke-width="0.75" opacity="0.75"/>
    <line x1="2.08" y1="1.19" x2="2.08" y2="8.54" fill="none" stroke="#161616" stroke-miterlimit="10"/>
    <line x1="4.91" y1="1.19" x2="4.91" y2="8.54" fill="none" stroke="#161616" stroke-miterlimit="10"/>
    <polyline points="16.77 9.82 55.6 9.82 59.65 5.76" fill="none" stroke="#fff" stroke-miterlimit="10" stroke-width="0.75" opacity="0.5"/>
    <polyline points="25.48 44.62 77.01 44.62 80.46 48.07" fill="none" stroke="#fff" stroke-miterlimit="10" stroke-width="0.75" opacity="0.75"/>
  </g>
</svg>
