<svg xmlns="http://www.w3.org/2000/svg" viewBox="0 0 604.19 596.28"><defs><style>.cls-1{opacity:0.5;}.cls-10,.cls-11,.cls-2{fill:#4d4d4d;}.cls-10,.cls-3{opacity:0.1;}.cls-4{opacity:0.25;}.cls-5{fill:#c6b63f;}.cls-6,.cls-7,.cls-8,.cls-9{fill:none;stroke-miterlimit:10;}.cls-6,.cls-7{stroke:#c6b63f;}.cls-6{stroke-width:0.75px;}.cls-8,.cls-9{stroke:#4d4d4d;}.cls-9{stroke-width:5px;}.cls-11,.cls-12{opacity:0.2;}.cls-13{fill:#48b8b8;}</style></defs><g id="Слой_2" data-name="Слой 2"><g id="bar"><g id="bar-2" data-name="bar"><g class="cls-1"><rect class="cls-2" x="295.3" y="273.93" width="3.8" height="50.35"/><rect class="cls-2" x="272.03" y="297.2" width="50.35" height="3.8"/></g><g class="cls-3"><path class="cls-2" d="M359,59.09c-2.42-.71-4.89-1.21-7.35-1.74l-7.38-1.61-7.45-1.25-3.72-.64c-1.25-.17-2.5-.3-3.75-.45l-7.5-.91c-2.51-.26-5-.37-7.54-.57-5-.48-10.06-.47-15.09-.61l-1.89-.05-1.89,0-3.78.09-3.77.09c-1.26,0-2.52,0-3.78.15l-7.53.54c-1.26.1-2.52.14-3.77.3l-3.75.45-7.5.9-7.45,1.26-3.73.63c-1.23.21-2.46.52-3.69.78l-7.38,1.61a245.71,245.71,0,0,0-106.06,55.21L100.85,76.69A294.71,294.71,0,0,1,227.92,10.56l8.83-1.94c1.48-.3,2.94-.66,4.43-.93l4.45-.75,8.92-1.5,9-1.09L268,3.82c1.49-.18,3-.24,4.5-.37l9-.64c1.5-.13,3-.13,4.52-.18l4.51-.11,4.52-.1,2.26,0,2.26,0c6,.16,12.05.18,18.05.73,3,.23,6,.39,9,.7l9,1.07c1.49.19,3,.35,4.48.56l4.46.75,8.91,1.51c2.95.6,5.89,1.27,8.84,1.9s5.89,1.26,8.79,2.1Z"/></g><g class="cls-3"><path class="cls-2" d="M542.82,332a247.32,247.32,0,0,0-3.44-85.35,248.13,248.13,0,0,0-57.91-113.25,263.12,263.12,0,0,0-31.38-29.26,243.84,243.84,0,0,0-75.18-40.32L390.2,17.34a292.73,292.73,0,0,1,90.1,48.32,311.53,311.53,0,0,1,37.48,35,302.59,302.59,0,0,1,30.87,41,296.7,296.7,0,0,1,23.46,45.65,300.56,300.56,0,0,1,15.06,49.06,296.38,296.38,0,0,1,4.11,102.09Z"/></g><g class="cls-4"><path class="cls-2" d="M528.21,390.25a247.62,247.62,0,0,0,13.34-47.13l48.12,8.63a296.73,296.73,0,0,1-16,56.42Z"/></g><g class="cls-4"><path class="cls-2" d="M121.61,123.51l-4.83,5.1-2.42,2.54c-.8.85-1.63,1.68-2.37,2.58L75.55,101.14c.9-1.08,1.88-2.07,2.84-3.09l2.88-3L87.05,89Z"/></g><g class="cls-3"><path class="cls-2" d="M110.75,463c.85,1,1.64,2,2.54,2.91l2.67,2.8,5.32,5.61c1.83,1.81,3.73,3.56,5.59,5.34l2.8,2.67c.47.44.92.9,1.41,1.32l1.47,1.26c3.93,3.31,7.72,6.82,11.88,9.86l6.1,4.73,6.33,4.41,3.17,2.21c1.05.74,2.17,1.37,3.25,2.07l6.54,4.09c1.08.71,2.21,1.31,3.34,1.94l3.37,1.87,3.36,1.89,1.69.94c.56.3,1.15.57,1.72.86,4.63,2.23,9.17,4.67,13.94,6.61,2.36,1,4.7,2.08,7.08,3.05l7.22,2.72,3.61,1.36,3.68,1.18,7.34,2.37,7.45,2,3.72,1c1.24.35,2.51.57,3.77.86l7.54,1.65c2.52.54,5.07.88,7.6,1.34,5.06,1,10.2,1.45,15.3,2.09l1.92.23,1.93.14,3.85.27,3.85.28,1.93.14c.64,0,1.28,0,1.93.06,5.15.08,10.29.36,15.44.11,2.58-.08,5.15-.06,7.72-.22l7.71-.56c1.28-.11,2.57-.15,3.85-.3l3.83-.47,7.67-.93,7.61-1.29,3.81-.63,3.77-.83,7.54-1.65c2.5-.63,5-1.33,7.46-2l3.73-1c1.25-.32,2.45-.78,3.68-1.15l7.35-2.37c1.23-.36,2.42-.85,3.63-1.3l3.6-1.37,3.62-1.36,1.8-.68,1.77-.77c4.7-2.08,9.48-4,14-6.39,2.3-1.16,4.64-2.24,6.9-3.46l6.74-3.76c1.12-.63,2.25-1.24,3.36-1.88l3.27-2,6.54-4.09c2.14-1.43,4.23-2.93,6.35-4.39s4.26-2.89,6.25-4.52a248.88,248.88,0,0,0,76.9-95.08l44.42,20.41a303.21,303.21,0,0,1-38.91,62.65A306.45,306.45,0,0,1,475.34,537c-2.4,1.93-5,3.63-7.49,5.41s-5,3.54-7.6,5.25l-7.84,4.91L448.49,555c-1.33.78-2.69,1.51-4,2.27l-8.08,4.5c-2.71,1.46-5.51,2.77-8.26,4.15-5.47,2.84-11.18,5.19-16.83,7.65l-2.12.92-2.15.83-4.33,1.63-4.32,1.63c-1.45.54-2.88,1.11-4.35,1.56l-8.8,2.84c-1.47.45-2.92,1-4.41,1.37l-4.46,1.21c-3,.79-5.94,1.62-8.93,2.37l-9,2-4.52,1-4.55.77-9.11,1.54c-3.05.4-6.11.75-9.17,1.12l-4.59.55c-1.52.18-3.06.24-4.6.37l-9.21.65c-3.07.19-6.15.19-9.23.29-6.16.26-12.31,0-18.47-.15-.76,0-1.53,0-2.3-.07l-2.31-.17-4.6-.32-4.61-.34-2.3-.16-2.29-.27c-6.12-.75-12.25-1.36-18.3-2.5-3-.54-6.09-1-9.1-1.61l-9-2c-1.5-.35-3-.62-4.5-1l-4.46-1.2c-3-.81-6-1.59-8.92-2.43l-8.79-2.83-4.4-1.43-4.33-1.62-8.64-3.26c-2.86-1.16-5.67-2.43-8.5-3.65-5.7-2.34-11.16-5.22-16.7-7.93-.69-.34-1.38-.68-2.07-1l-2-1.12-4-2.25-4-2.25c-1.35-.75-2.7-1.49-4-2.33l-7.84-4.89c-1.3-.84-2.64-1.61-3.9-2.49l-3.79-2.64a296.22,296.22,0,0,1-55.12-48.88Z"/></g><g class="cls-3"><path class="cls-2" d="M104.07,143a254.53,254.53,0,0,0-22.69,33.27l-2.45,4.4c-.81,1.47-1.68,2.91-2.39,4.44l-4.46,9-4,9.23-1,2.31-.88,2.36-1.78,4.72a243.15,243.15,0,0,0-15.31,78.84l-.13,5-.06,2.53.07,2.52c.1,3.36.12,6.72.27,10.08l.72,10.07c.3,3.35.79,6.68,1.16,10a258.24,258.24,0,0,0,8.48,39.39l3.09,9.59,3.54,9.44.89,2.35,1,2.31,2,4.62c.68,1.54,1.31,3.1,2,4.61l2.24,4.52A234.73,234.73,0,0,0,95,443.26L55.28,471.7a283.59,283.59,0,0,1-24.75-41.41l-2.67-5.42c-.87-1.81-1.63-3.68-2.45-5.52L23,413.81,21.81,411l-1.07-2.82c-1.42-3.76-2.87-7.52-4.24-11.3l-3.71-11.49A307.54,307.54,0,0,1,2.64,338.29c-.46-4-1-8-1.38-12l-.86-12c-.18-4-.22-8-.33-12l-.07-3,.06-3,.14-6C1.78,225.8,25.54,162.25,66.09,112.24Z"/></g><path class="cls-5" d="M567.55,335.24l.27-2.25-1-.12-.26,2.23Zm.53-4.47c.73-5.17,1-10.38,1.39-15.58l-1-.06c-.39,5.18-.65,10.38-1.38,15.53Zm-13.9-123.29-2.76-7.32L550,196.5l-1.56-3.59-.92.39,1.55,3.58,1.38,3.64,2.75,7.3ZM499.42,116,494,110.35l-2.69-2.83L490,106.11l-1.41-1.35-.71.71,1.42,1.34,1.35,1.41,2.68,2.82,5.37,5.65ZM487,103.22l-5.67-5.39-1.42-1.35-1.49-1.27-3-2.55-.65.76,3,2.54,1.48,1.26,1.41,1.34,5.65,5.38ZM397.43,45.37c-4.9-1.8-9.72-3.8-14.72-5.29l-.31,1c5,1.48,9.79,3.47,14.66,5.27Z"/><path class="cls-2" d="M371.61,9.79c-2.92-.84-5.89-1.46-8.85-2.11s-5.93-1.31-8.9-1.92l-9-1.52-4.49-.75c-1.5-.21-3-.37-4.51-.56l-9-1.08c-3-.32-6-.47-9.07-.71-6-.55-12.11-.57-18.17-.73l-2.28,0-2.27,0-4.55.1L286,.62c-1.51.05-3,.05-4.54.18l-9.08.65c-1.51.13-3,.19-4.53.37l-4.52.53-9,1.1-9,1.51-4.48.76c-1.5.26-3,.63-4.45.94l-8.9,1.94A296.49,296.49,0,0,0,99.52,75.19l1.33,1.5A294.71,294.71,0,0,1,227.92,10.56l8.83-1.94c1.48-.3,2.94-.66,4.43-.93l4.45-.75,8.92-1.5,9-1.09L268,3.82c1.49-.18,3-.24,4.5-.37l9-.64c1.5-.13,3-.13,4.52-.18l4.51-.11,4.52-.1,2.26,0,2.26,0c6,.16,12.05.18,18.05.73,3,.23,6,.39,9,.7l9,1.07c1.49.19,3,.35,4.48.56l4.46.75,8.91,1.51c2.95.6,5.89,1.27,8.84,1.9s5.89,1.26,8.79,2.1Z"/><path class="cls-6" d="M225.57.45c-1,1.15-2,2.39-3,3.62l-2.91,3.67,3.66-1c1.21-.34,2.43-.66,3.67-.91l7.39-1.63Q230.05,2.32,225.57.45Z"/><path class="cls-2" d="M445.46,30.16c-3.12.42-6.14.77-9.22,1.33,4.47,2.34,8.84,4.87,13.26,7.32Q447.55,34.5,445.46,30.16Z"/><path class="cls-2" d="M464.8,41.72q-4.73.33-9.35.74l6.42,4c1.08.66,2.12,1.38,3.15,2.11l3.11,2.16-1.61-4.52C466,44.7,465.41,43.18,464.8,41.72Z"/><path class="cls-2" d="M604.19,305l-2.71-3.8c-.89-1.25-1.8-2.49-2.78-3.73,0,1.27,0,2.53,0,3.79L598.6,305l-.18,7.56Q601.3,308.83,604.19,305Z"/><path class="cls-2" d="M501.54,528.34l.49-2.28.43-2.32.8-4.6-2.74,2.6L499.15,523l-1.43,1.24L492,529.2C495.13,528.94,498.32,528.66,501.54,528.34Z"/><path class="cls-7" d="M526.25,503.65q.39-4.72.68-9.34L522,500c-.8,1-1.68,1.87-2.55,2.79l-2.6,2.74,4.71-.91C523.13,504.35,524.72,504,526.25,503.65Z"/><path class="cls-7" d="M199.4,590.23q4.48-1.49,8.84-3l-7.2-2.33-3.6-1.17-3.54-1.33,2.69,4Z"/><path class="cls-7" d="M5.23,203.91q1.5,4.47,3,8.8c1.56-4.8,3-9.63,4.7-14.39C10.32,200.11,7.83,202,5.23,203.91Z"/><polygon class="cls-2" points="543.07 329.91 542.82 331.95 591.28 338.39 591.58 335.95 543.07 329.91"/><g class="cls-1"><path class="cls-8" d="M139,119.82a237.1,237.1,0,0,1,79.68-46.66A239.25,239.25,0,1,1,125.53,465.5,239,239,0,0,1,128.09,130"/></g><g class="cls-1"><path class="cls-8" d="M133.23,113.31A245.66,245.66,0,0,1,215.83,65,248.21,248.21,0,1,1,122,123.85"/></g><path class="cls-9" d="M458.75,456.28a225.14,225.14,0,0,0,56.64-100.41"/><path class="cls-9" d="M280.87,523.91q8.08.58,16.33.59a224.38,224.38,0,0,0,122.39-36.09"/><path class="cls-9" d="M119.34,437.56A225.92,225.92,0,0,0,220,510.94"/><path class="cls-9" d="M231.48,83.44c-92.42,28.13-159.67,114-159.67,215.66a225.06,225.06,0,0,0,11.46,71.16"/><path class="cls-9" d="M297.2,73.71a224.63,224.63,0,0,1,155.42,62.15"/><path class="cls-10" d="M414.38,299.1a117,117,0,0,1-49.45,95.63l32.65,46.09A173.89,173.89,0,0,0,466.19,259l-55,13A117,117,0,0,1,414.38,299.1Z"/><path class="cls-10" d="M180,299.1A117.21,117.21,0,0,1,312.74,183c2.43-18.16,5-37.15,7.48-56A173.74,173.74,0,0,0,123.55,299.1a173,173,0,0,0,39.93,110.78l43.49-36A116.63,116.63,0,0,1,180,299.1Z"/><path class="cls-10" d="M297.2,416.28A116.71,116.71,0,0,1,227.06,393l-33.8,45.24a174,174,0,0,0,140.79,30.6l-12-55.19A117.77,117.77,0,0,1,297.2,416.28Z"/><path class="cls-11" d="M334.05,468.82l11.84,54.5a228.36,228.36,0,0,0,83.92-37l-32.23-45.51A172.9,172.9,0,0,1,334.05,468.82Z"/><path class="cls-11" d="M322.07,413.63l12,55.19a172.9,172.9,0,0,0,63.53-28l-32.65-46.09A116.52,116.52,0,0,1,322.07,413.63Z"/><path class="cls-11" d="M163.48,409.88l-42.95,35.57a230.24,230.24,0,0,0,39.35,37.44l33.38-44.67A174.51,174.51,0,0,1,163.48,409.88Z"/><path class="cls-11" d="M207,373.85l-43.49,36a174.51,174.51,0,0,0,29.78,28.34L227.06,393A117.42,117.42,0,0,1,207,373.85Z"/><path class="cls-11" d="M466.19,259l54.27-12.88C498.82,154.58,422.33,84.24,327.59,71.7c-2.34,17.57-4.84,36.34-7.37,55.28A173.81,173.81,0,0,1,466.19,259Z"/><path class="cls-11" d="M320.22,127c-2.51,18.83-5.05,37.82-7.48,56a117.26,117.26,0,0,1,98.49,89.09l55-13A173.81,173.81,0,0,0,320.22,127Z"/><g class="cls-12"><path class="cls-2" d="M476.73,421.83l-56.92-39c.3-.43.6-.87.89-1.32l57.37,38.34Zm3.29-4.95-58-37.4c.3-.46.59-.92.88-1.39l58.37,36.81C480.87,415.56,480.45,416.22,480,416.88Zm3.15-5-59-35.82.84-1.39,59.35,35.18Zm3-5.1-59.92-34.22c.27-.46.53-.93.79-1.4l60.3,33.55Zm2.87-5.2L428.2,369l.75-1.42,61.2,31.87Q489.61,400.51,489,401.56ZM104,398.88c-.37-.71-.73-1.43-1.09-2.14l61.64-31c.24.47.48.95.73,1.42Zm387.81-2.57-61.7-30.9.72-1.44,62,30.21C492.47,394.89,492.11,395.6,491.76,396.31Zm-390.48-2.77c-.34-.71-.69-1.43-1-2.15l62.46-29.32c.23.49.46,1,.7,1.47ZM494.34,391l-62.52-29.18c.23-.49.45-1,.67-1.47l62.84,28.5C495,389.54,494.68,390.25,494.34,391ZM98.77,388.14c-.33-.72-.65-1.45-1-2.18L161,358.36l.66,1.49Zm398-2.57-63.3-27.47c.21-.48.42-1,.62-1.46l63.61,26.73ZM96.39,382.65c-.3-.73-.61-1.46-.9-2.2l64-25.82c.21.5.41,1,.62,1.51Zm402.67-2.56-64-25.7c.2-.5.4-1,.59-1.51l64.31,25C499.65,378.62,499.36,379.36,499.06,380.09Zm-404.89-3-.84-2.22L158,350.83l.58,1.53Zm407-2.57-64.72-23.92c.19-.51.38-1,.56-1.54l65,23.24Q501.62,373.43,501.2,374.54Zm-409.08-3c-.27-.76-.53-1.52-.8-2.29L156.64,347l.52,1.51Zm411.07-2.6-65.35-22.15.51-1.53,65.59,21.41Zm-413-3.07c-.24-.77-.49-1.53-.72-2.3l65.9-20.42c.16.51.32,1,.49,1.53ZM505,363.27l-65.94-20.33.48-1.57L505.7,361C505.48,361.77,505.25,362.52,505,363.27ZM88.45,360.15c-.22-.75-.44-1.51-.65-2.27l66.43-18.63.45,1.57Zm418.24-2.58-66.47-18.52c.15-.51.29-1,.43-1.55l66.67,17.76C507.12,356,506.91,356.8,506.69,357.57ZM86.86,354.43c-.2-.77-.4-1.54-.59-2.31l66.93-16.77c.13.52.26,1,.4,1.55Zm421.35-2.61-66.95-16.69c.13-.52.25-1,.38-1.56l67.14,15.93ZM85.42,348.63c-.17-.76-.35-1.52-.52-2.29l67.37-14.95c.11.54.24,1.08.36,1.61ZM509.57,346,442.18,331.2c.12-.54.23-1.07.35-1.61l67.53,14.13C509.9,344.49,509.74,345.26,509.57,346ZM84.16,342.84c-.16-.77-.31-1.55-.46-2.33l67.75-13.08c.1.54.2,1.07.31,1.6Zm426.61-2.63-67.77-13,.3-1.6,67.9,12.27C511.06,338.66,510.92,339.44,510.77,340.21ZM83.05,337c-.14-.78-.27-1.57-.4-2.35l68.08-11.22L151,325Zm428.75-2.65-68.09-11.13c.08-.53.17-1.06.25-1.59L512.18,332C512.06,332.78,511.93,333.57,511.8,334.36ZM82.1,331.15c-.12-.79-.23-1.58-.34-2.37l68.37-9.34c.07.53.15,1.06.22,1.59Zm430.58-2.68-68.37-9.25c.07-.52.13-1.05.2-1.57L513,326.08C512.89,326.88,512.79,327.68,512.68,328.47ZM81.31,325.26,81,322.88l68.59-7.47c.06.53.12,1.07.19,1.6Zm432.09-2.68-68.61-7.39c.06-.52.11-1.05.17-1.58l68.68,6.57C513.57,321,513.48,321.78,513.4,322.58ZM80.68,319.35c-.07-.79-.14-1.59-.2-2.38l68.77-5.6c0,.53.09,1.07.14,1.6ZM514,316.67l-68.78-5.52c.05-.54.09-1.07.12-1.61l68.84,4.75C514.08,315.08,514,315.87,514,316.67ZM80.22,313.43l-.15-2.38,68.9-3.74c0,.54.06,1.08.1,1.61Zm434.13-2.69-68.91-3.64c0-.54.06-1.08.08-1.62l68.94,2.88C514.43,309.15,514.39,310,514.35,310.74ZM79.91,307.5c0-.79-.06-1.59-.08-2.38l69-1.87c0,.54,0,1.08.05,1.62Zm434.67-2.68-69-1.77c0-.55,0-1.1,0-1.65l69,1.07C514.62,303.25,514.6,304,514.58,304.82ZM79.76,301.57c0-.79,0-1.57,0-2.36l69,0c0,.55,0,1.1,0,1.65Zm434.89-2.47h-69c0-.54,0-1.08,0-1.62l69-.76C514.65,297.52,514.65,298.31,514.65,299.1Zm-365.88-2.38-69-1.06c0-.8,0-1.59,0-2.38l69,1.82ZM445.6,295c0-.55,0-1.1-.05-1.64l68.95-2.58c0,.78,0,1.57.07,2.35Zm-296.71-2.37L80,289.74c0-.8.07-1.59.11-2.38L149,291.05C148.94,291.59,148.91,292.13,148.89,292.67ZM445.43,291c0-.54-.06-1.07-.09-1.61l68.86-4.45c0,.79.09,1.58.14,2.38Zm-296.31-2.34-68.84-4.8.18-2.35L149.24,287C149.19,287.52,149.15,288.06,149.12,288.61Zm296-1.71c0-.54-.09-1.07-.14-1.61L513.73,279l.21,2.37Zm-295.71-2.34L80.77,277.9c.08-.79.16-1.57.25-2.35l68.6,7.38C149.56,283.47,149.51,284,149.45,284.56Zm295.33-1.7c-.06-.54-.12-1.07-.19-1.6l68.52-8.2.27,2.38ZM149.9,280.53,81.43,272l.3-2.34,68.38,9.26Zm294.38-1.7c-.07-.53-.14-1.06-.22-1.59l68.26-10.07c.12.79.23,1.58.34,2.37Zm-293.82-2.32-68.22-10.4c.12-.78.25-1.56.37-2.34l68.1,11.13C150.62,275.43,150.54,276,150.46,276.51Zm.66-4-67.9-12.27c.14-.77.29-1.55.43-2.33l67.77,13Zm.77-4L84.36,254.4c.16-.78.33-1.55.5-2.32L152.23,267C152.12,267.48,152,268,151.89,268.54Zm.88-3.94-67.11-16c.18-.76.36-1.53.55-2.28l67,16.68C153,263.53,152.9,264.06,152.77,264.6Zm1-4L87.11,242.86c.2-.78.41-1.55.63-2.32L154.2,259.1Q154,259.87,153.78,260.63Zm1.1-3.89L88.72,237.13c.23-.77.46-1.53.7-2.3l65.92,20.38C155.18,255.72,155,256.23,154.88,256.74Zm1.2-3.87L90.49,231.46c.25-.77.5-1.53.76-2.29l65.33,22.19C156.41,251.86,156.25,252.36,156.08,252.87Zm1.3-3.8L92.43,225.79l.81-2.22,64.7,24C157.75,248.05,157.57,248.56,157.38,249.07Zm1.42-3.8L94.51,220.22l.87-2.2,64,25.74Zm1.53-3.76-63.6-26.77c.31-.73.62-1.46.94-2.18L161,240Q160.63,240.78,160.33,241.51Zm1.61-3.69L99.11,209.31c.32-.72.65-1.43,1-2.15l62.52,29.19C162.39,236.83,162.17,237.32,161.94,237.82Zm1.72-3.65-62-30.23,1.05-2.12,61.7,30.9C164.13,233.2,163.9,233.69,163.66,234.17Zm1.82-3.61L104.3,198.65c.37-.7.73-1.39,1.11-2.09l60.83,32.57ZM167.4,227l-60.29-33.56c.39-.69.77-1.38,1.17-2.07l59.91,34.22Zm2-3.49-59.32-35.23c.4-.67.8-1.34,1.21-2l59,35.84C170,222.57,169.68,223,169.4,223.51Zm2.13-3.47-58.37-36.8c.42-.67.85-1.34,1.28-2l58,37.44C172.1,219.13,171.81,219.59,171.53,220Zm2.2-3.39L116.4,178.26c.43-.65.88-1.3,1.32-1.95l56.92,39ZM176,213.3l-56.29-39.9c.46-.65.92-1.3,1.39-1.94L177,212Zm2.38-3.26-55.16-41.45,1.43-1.89,54.71,42.06C179.07,209.18,178.74,209.61,178.42,210Zm2.48-3.21-54-42.93c.5-.62,1-1.24,1.49-1.85l53.54,43.52Z"/></g><path class="cls-5" d="M434.66,498l-56.91-82.22c1-.71,2-1.42,3-2.15l59,80.72C438.1,495.6,436.37,496.83,434.66,498ZM98.53,436.9c-1.2-1.72-2.39-3.48-3.53-5.22l83.59-54.89c.68,1,1.37,2.06,2.07,3.07ZM290,157.51,285.1,57.63c2.08-.1,4.19-.18,6.28-.23l2.36,100C292.5,157.4,291.26,157.45,290,157.51Z"/><path class="cls-5" d="M273.77,411.88l-2-.42.22-1c.64.15,1.29.29,1.94.42Zm-4.89-1.12-1.94-.51.26-1,1.92.51Zm62.45-1.64-.29-.95,1.9-.61.31.95Zm14.1-5.41-.42-.91,1.81-.85.43.9Zm-117-12.24c-.53-.4-1.07-.8-1.59-1.21l.61-.79,1.58,1.2Zm138.52-.7-.61-.8,1.58-1.22.62.78Zm-142.47-2.38-1.55-1.28.65-.77,1.53,1.27Zm146.4-.75-.64-.77,1.52-1.29.65.76Zm-150.22-2.51-1.49-1.34.68-.74,1.48,1.34ZM217,381.71c-.48-.46-1-.93-1.43-1.41l.71-.7,1.41,1.4Zm-3.53-3.57-1.36-1.47.74-.68c.44.49.89,1,1.35,1.46Zm174.82-8.52-.79-.61c.4-.53.81-1.06,1.2-1.59l.8.6C389.07,368.56,388.67,369.09,388.26,369.62Zm8.42-12.45-.87-.51c.34-.57.67-1.14,1-1.72l.87.49Zm12.84-32.52-1-.22c.15-.64.29-1.29.43-1.94l1,.2C409.81,323.35,409.67,324,409.52,324.65Zm2.35-14.86-1-.09c.06-.66.11-1.32.16-2l1,.08C412,308.46,411.94,309.12,411.87,309.79ZM184.48,280.93l-1-.16c.11-.66.22-1.32.34-2l1,.18C184.69,279.62,184.58,280.27,184.48,280.93Zm2-9.75-1-.24q.24-1,.51-1.95l1,.27C186.81,269.9,186.64,270.54,186.48,271.18Zm2.85-9.53-1-.33c.22-.63.45-1.26.68-1.89l.94.34C189.77,260.39,189.54,261,189.33,261.65Zm3.66-9.24-.91-.4c.27-.61.55-1.22.84-1.82l.9.42C193.54,251.21,193.26,251.81,193,252.41Zm2.13-4.48-.89-.45c.3-.59.6-1.19.91-1.78l.89.47C195.72,246.75,195.42,247.34,195.12,247.93Zm203.36-1.55c-.3-.59-.62-1.18-.93-1.77l.87-.47c.32.59.64,1.18.95,1.77Zm-201-2.83-.88-.49,1-1.74.87.5C198.1,242.39,197.77,243,197.45,243.55Zm196-5.8c-.36-.56-.72-1.12-1.09-1.67l.84-.56c.37.56.73,1.12,1.09,1.69Zm-2.77-4.14c-.38-.55-.77-1.09-1.16-1.62l.81-.59,1.17,1.63Zm-12.8-15.24L376.5,217l.7-.72c.48.46,1,.93,1.43,1.41Zm-7.33-6.72-1.53-1.26.63-.78c.52.42,1,.85,1.54,1.28Zm-7.88-6.06c-.54-.38-1.09-.75-1.64-1.12l.56-.83q.84.56,1.65,1.14Zm-8.37-5.34c-.57-.34-1.15-.66-1.73-1l.49-.88,1.74,1Zm-4.35-2.4-1.77-.9.45-.9c.6.3,1.19.61,1.78.92Zm-98.16-3.54-.4-.91,1.86-.79.38.93Zm89.17-.66q-.92-.39-1.83-.75l.36-.93,1.86.75Zm-84.55-1.22-.36-.93,1.89-.71.34.94Zm79.93-.59-1.88-.67.33-.94,1.89.67Zm-75.23-1.09-.31-.95,1.92-.62.3,1C262.42,190.33,261.79,190.54,261.15,190.75Zm70.51-.51-1.9-.59.29-1,1.92.59Zm-65.74-1-.28-1,1.94-.53.26,1Zm9.68-2.3-.19-1,2-.36.17,1Zm9.85-1.44-.11-1c.67-.07,1.34-.14,2-.19l.09,1Zm9.93-.58,0-1,1.84,0h.17v1h-.17Z"/><path class="cls-13" d="M259.14,407.79l-1.89-.68.35-.94,1.87.67Zm57.43,4.76-.17-1,2-.35.19,1Zm-106.63-38.2c-.43-.5-.87-1-1.29-1.53l.76-.64,1.29,1.52Zm168.22,6.44-.71-.71c.47-.47.94-.94,1.4-1.42l.72.7ZM405.09,339l-.94-.34c.23-.63.45-1.25.67-1.88l.95.33C405.55,337.72,405.32,338.34,405.09,339ZM187.65,266.33l-1-.29c.2-.64.39-1.28.59-1.92l1,.31C188,265.06,187.84,265.69,187.65,266.33Zm3.25-9.41-.93-.36c.25-.63.5-1.25.76-1.86l.92.38Zm14.48-26-.81-.59c.4-.54.81-1.07,1.21-1.6l.79.61C206.17,229.89,205.77,230.42,205.38,231Zm195.13,19.77c-.28-.6-.57-1.2-.86-1.8l.9-.44c.29.6.58,1.21.86,1.81Zm-12.92-21.24-1.22-1.56.78-.63c.42.53.83,1.05,1.24,1.59Zm-6.39-7.62c-.45-.48-.9-1-1.36-1.45l.73-.69,1.37,1.47Zm-7-7-1.47-1.33.66-.75c.5.45,1,.89,1.49,1.35Zm-7.6-6.39-1.59-1.2.6-.8,1.6,1.21Zm-86.24-22.38-.15-1,2-.28.13,1C281.64,185.87,281,186,280.33,186.06Zm29.77-.45.12-1,1.82.23.17,0-.13,1-.17,0Z"/></g></g></g></svg>