<svg width="13" height="13" viewBox="0 0 13 13" fill="none" xmlns="http://www.w3.org/2000/svg">
<path fill-rule="evenodd" clip-rule="evenodd" d="M8.62079 0.596607C7.4514 0.0326702 6.13084 -0.137437 4.85671 0.11174C3.58258 0.360916 2.42339 1.01598 1.5526 1.9789C0.681814 2.94183 0.146249 4.16084 0.0260466 5.45354C-0.0941556 6.74623 0.207469 8.04309 0.885785 9.15006L0.0275881 11.436C0.000759352 11.5074 -0.00667401 11.5847 0.00604383 11.6599C0.0187617 11.7352 0.0511771 11.8057 0.0999942 11.8644C0.148811 11.923 0.212289 11.9677 0.283973 11.9939C0.355656 12.02 0.43299 12.0267 0.508109 12.0133L3.50359 11.4714C4.94568 12.15 6.59827 12.2279 8.09782 11.688C9.59736 11.1482 10.821 10.0347 11.4996 8.59262C12.1782 7.15053 12.2561 5.49794 11.7162 3.99839C11.1763 2.49885 10.0629 1.27519 8.62079 0.596607Z" fill="black"/>
</svg>
