<svg width="23" height="23" viewBox="0 0 23 23" fill="none" xmlns="http://www.w3.org/2000/svg">
<path d="M16.5503 0.781621L16.5502 0.781595L2.49449 14.7691L0.540866 21.7463L7.51811 19.7927L21.5056 5.73698L21.5073 5.73528C21.6328 5.61076 21.7325 5.4626 21.8006 5.29934C21.8685 5.13625 21.9035 4.96123 21.9035 4.78436C21.9035 4.60748 21.8685 4.43246 21.8006 4.26938C21.7325 4.10612 21.6328 3.95794 21.5073 3.83343L21.5055 3.83164L18.4712 0.780203L18.469 0.777922C18.3444 0.65044 18.1953 0.549047 18.0309 0.479809C17.8664 0.410634 17.6898 0.375 17.5114 0.375C17.3331 0.375 17.1564 0.410634 16.992 0.479809L16.5503 0.781621ZM16.5503 0.781621L16.5539 0.777912M16.5503 0.781621L16.5539 0.777912M16.5539 0.777912C16.6785 0.650466 16.8275 0.549087 16.9919 0.47985L16.5539 0.777912Z" stroke="#0F0F0F" stroke-width="0.75" stroke-linecap="round" stroke-linejoin="round"/>
</svg>
