<svg width="15" height="11" viewBox="0 0 15 11" fill="none" xmlns="http://www.w3.org/2000/svg">
<path fill-rule="evenodd" clip-rule="evenodd" d="M3.14252 1.64009C4.34573 0.749097 5.84572 0 7.5 0C9.15428 0 10.6543 0.750197 11.8575 1.64009C13.0661 2.53329 14.0218 3.60249 14.6003 4.32078L14.6057 4.32628C14.8639 4.65628 15 5.07538 15 5.49998C15 5.92458 14.8639 6.34258 14.6057 6.67367L14.6003 6.67917C14.0218 7.39747 13.0661 8.46667 11.8575 9.35987C10.6543 10.252 9.15428 11 7.5 11C5.84572 11 4.34573 10.2498 3.14252 9.36096C1.93395 8.46557 0.97824 7.39637 0.399671 6.67808L0.394314 6.67257C0.136759 6.33915 -0.00232643 5.92552 2.94433e-05 5.49998C2.94433e-05 5.07538 0.1361 4.65738 0.394314 4.32628L0.399671 4.32078C0.97824 3.60249 1.93395 2.53329 3.14252 1.64009ZM7.5 7.97497C8.13936 7.97497 8.75253 7.71421 9.20463 7.25006C9.65672 6.78591 9.91071 6.15639 9.91071 5.49998C9.91071 4.84357 9.65672 4.21405 9.20463 3.7499C8.75253 3.28575 8.13936 3.02499 7.5 3.02499C6.86064 3.02499 6.24747 3.28575 5.79537 3.7499C5.34328 4.21405 5.0893 4.84357 5.0893 5.49998C5.0893 6.15639 5.34328 6.78591 5.79537 7.25006C6.24747 7.71421 6.86064 7.97497 7.5 7.97497Z" fill="black"/>
</svg>
