<svg viewBox="0 0 203 39">
  <g>
    <g>
      <polygon data-name="bg"
        points="4.36 6.32 4.36 13.13 0 21.05 0 32.13 66.34 32.1 71.33 37.04 139.17 36.98 145.97 30.29 163.89 30.34 170.87 37.04 178.35 37.04 185.15 30.29 203 30.29 203 14.49 194.9 6.45 80.29 6.45 77.81 8.91 67.96 8.91 65.31 6.28 4.36 6.32"
        fill="#161616" />
      <text transform="translate(150.54 37.03) scale(1.01 1)" opacity="0.5" font-size="9.92" fill="#bfa613"
        font-family="ISL_FADETOBLAK, ISL_FADE TO BLAK">01</text>
      <g>
        <polygon points="165.35 34.61 164.13 35.83 162.91 37.04 162.91 34.61 162.91 32.17 164.13 33.39 165.35 34.61"
          fill="#4d4d4d" opacity="0.25" />
        <line x1="161.95" y1="32.11" x2="161.95" y2="37.04" fill="none" stroke="#4d4d4d" stroke-miterlimit="10"
          opacity="0.1" />
      </g>
      <g>
        <polygon points="144.23 34.55 145.45 33.33 146.67 32.11 146.67 34.55 146.67 36.98 145.45 35.77 144.23 34.55"
          fill="#4d4d4d" opacity="0.25" />
        <line x1="147.64" y1="37.04" x2="147.64" y2="32.11" fill="none" stroke="#4d4d4d" stroke-miterlimit="10"
          opacity="0.1" />
      </g>
      <g opacity="0.25">
        <line x1="6.26" y1="4.78" x2="57.03" y2="4.64" fill="none" stroke="#4d4d4d" stroke-miterlimit="10" />
        <polygon points="10.64 3.59 6.26 3.59 6.26 4.79 12.8 4.79 10.64 3.59" fill="#4d4d4d" />
      </g>
      <line x1="4.93" y1="3.59" x2="4.93" y2="5.32" fill="none" stroke="#bfa613" stroke-miterlimit="10" />
      <line x1="1.8" y1="26.51" x2="1.8" y2="31.22" fill="none" stroke="#0a0a0a" stroke-miterlimit="10" />
      <line x1="3.83" y1="26.51" x2="3.83" y2="31.22" fill="none" stroke="#0a0a0a" stroke-miterlimit="10" />
      <line x1="129.63" y1="3.5" x2="129.63" y2="5.23" fill="none" stroke="#bfa613" stroke-miterlimit="10" />
      <polyline points="85.81 4.69 79.42 4.69 77.07 7.03 68.93 7.03 66.52 4.64 59.15 4.64" fill="none" stroke="#4d4d4d"
        stroke-miterlimit="10" opacity="0.5" />
      <g opacity="0.1">
        <line x1="86.78" y1="4.69" x2="128.61" y2="4.69" fill="none" stroke="#4d4d4d" stroke-miterlimit="10" />
        <polygon points="124.22 3.5 128.61 3.5 128.61 4.69 122.06 4.69 124.22 3.5" fill="#4d4d4d" />
      </g>
      <polygon points="203 11.82 197.23 6.1 203 6.1 203 11.82" fill="#4d4d4d" opacity="0.5" />
      <g data-triangle="triangle">
        <polygon points="193.41 22.79 188.57 17.86 198.24 17.86 193.41 22.79" fill="#bfa613" />
        <line x1="198.24" y1="16.26" x2="188.57" y2="16.26" fill="none" stroke="#bfa613" stroke-miterlimit="10"
          opacity="0.75" />
      </g>
      <text data-label="label" transform="translate(139.38 4.96) scale(1.01 1)" opacity="0.75" font-size="9.92"
        fill="#4d4d4d" font-family="ISL_FADETOBLAK, ISL_FADE TO BLAK">category</text>
    </g>
    <text data-placeholder="placeholder" transform="translate(13.57 24.08) scale(1.01 1)" opacity="0.75"
      font-size="19.83" fill="#fff" font-family="ISL_FADETOBLAK, ISL_FADE TO BLAK">all category</text>
  </g>
</svg>