<svg viewBox="0 0 173 39">
  <g>
    <g>
      <polygon data-name="bg"
        points="4.36 6.33 4.36 13.14 0 21.05 0 32.14 65.96 32.1 70.94 37.05 106.52 36.98 113.31 30.29 133.92 30.34 140.89 37.04 148.37 37.04 155.16 30.29 173 30.29 173 14.49 164.91 6.45 79.89 6.46 77.42 8.92 67.58 8.92 64.93 6.29 4.36 6.33"
        fill="#161616" />
      <text transform="translate(116.92 37.03) scale(1.01 1)" opacity="0.5" font-size="9.92" fill="#bfa613"
        font-family="ISL_FADETOBLAK, ISL_FADE TO BLAK">07</text>
      <g>
        <polygon points="135.38 34.61 134.16 35.83 132.94 37.04 132.94 34.61 132.94 32.17 134.16 33.39 135.38 34.61"
          fill="#4d4d4d" opacity="0.25" />
        <line x1="131.98" y1="32.11" x2="131.98" y2="37.04" fill="none" stroke="#4d4d4d" stroke-miterlimit="10"
          opacity="0.1" />
      </g>
      <g>
        <polygon points="111.58 34.55 112.79 33.33 114.01 32.11 114.01 34.55 114.01 36.98 112.79 35.77 111.58 34.55"
          fill="#4d4d4d" opacity="0.25" />
        <line x1="114.98" y1="37.04" x2="114.98" y2="32.11" fill="none" stroke="#4d4d4d" stroke-miterlimit="10"
          opacity="0.1" />
      </g>
      <g opacity="0.25">
        <line x1="6.25" y1="4.79" x2="57.84" y2="4.65" fill="none" stroke="#4d4d4d" stroke-miterlimit="10" />
        <polygon points="10.63 3.6 6.25 3.6 6.25 4.79 12.79 4.79 10.63 3.6" fill="#4d4d4d" />
      </g>
      <line x1="4.93" y1="3.6" x2="4.93" y2="5.33" fill="none" stroke="#bfa613" stroke-miterlimit="10" />
      <line x1="2.53" y1="26.51" x2="2.53" y2="31.23" fill="none" stroke="#0a0a0a" stroke-miterlimit="10" />
      <line x1="4.56" y1="26.51" x2="4.56" y2="31.23" fill="none" stroke="#0a0a0a" stroke-miterlimit="10" />
      <line x1="130.22" y1="3.5" x2="130.22" y2="5.23" fill="none" stroke="#bfa613" stroke-miterlimit="10" />
      <polyline points="128.62 4.69 79.03 4.7 76.68 7.04 68.55 7.04 66.14 4.64 58.77 4.64" fill="none" stroke="#4d4d4d"
        stroke-miterlimit="10" opacity="0.5" />
      <polygon points="173 11.82 167.24 6.1 173 6.1 173 11.82" fill="#4d4d4d" opacity="0.5" />
      <g data-triangle="triangle">
        <polygon points="163.41 22.79 158.58 17.86 168.25 17.86 163.41 22.79" fill="#bfa613" />
        <line x1="168.25" y1="16.25" x2="158.58" y2="16.25" fill="none" stroke="#bfa613" stroke-miterlimit="10"
          opacity="0.75" />
      </g>
      <text data-label="label" transform="translate(137.42 4.96) scale(1.01 1)" opacity="0.75" font-size="9.92"
        fill="#4d4d4d" font-family="ISL_FADETOBLAK, ISL_FADE TO BLAK">date</text>
    </g>
    <text data-placeholder="placeholder" transform="translate(30.59 24.09) scale(1.01 1)" opacity="0.75"
      font-size="19.83" fill="#fff" font-family="ISL_FADETOBLAK, ISL_FADE TO BLAK">all time</text>
  </g>
</svg>