<svg viewBox="0 0 147 39">
  <g>
    <g>
      <polygon data-name="bg"
        points="4.35 6.32 4.35 13.13 0 21.05 0 32.13 65.94 32.1 70.92 37.04 80.54 36.98 87.33 30.29 107.93 30.34 114.9 37.04 122.37 37.04 129.16 30.29 147 30.29 147 14.49 138.91 6.45 79.87 6.45 77.4 8.91 67.56 8.91 64.92 6.28 4.35 6.32"
        fill="#161616" />
      <text transform="translate(90.94 37.03) scale(1.01 1)" opacity="0.5" font-size="9.92" fill="#bfa613"
        font-family="ISL_FADETOBLAK, ISL_FADE TO BLAK">03</text>
      <g>
        <polygon points="109.39 34.61 108.17 35.83 106.95 37.04 106.95 34.61 106.95 32.17 108.17 33.39 109.39 34.61"
          fill="#4d4d4d" opacity="0.25" />
        <line x1="105.99" y1="32.11" x2="105.99" y2="37.04" fill="none" stroke="#4d4d4d" stroke-miterlimit="10"
          opacity="0.1" />
      </g>
      <g>
        <polygon points="85.59 34.55 86.81 33.33 88.03 32.11 88.03 34.55 88.03 36.98 86.81 35.77 85.59 34.55"
          fill="#4d4d4d" opacity="0.25" />
        <line x1="89" y1="37.04" x2="89" y2="32.11" fill="none" stroke="#4d4d4d" stroke-miterlimit="10" opacity="0.1" />
      </g>
      <g opacity="0.25">
        <line x1="6.25" y1="4.78" x2="57.83" y2="4.64" fill="none" stroke="#4d4d4d" stroke-miterlimit="10" />
        <polygon points="10.63 3.59 6.25 3.59 6.25 4.79 12.79 4.79 10.63 3.59" fill="#4d4d4d" />
      </g>
      <line x1="4.93" y1="3.59" x2="4.93" y2="5.32" fill="none" stroke="#bfa613" stroke-miterlimit="10" />
      <line x1="2.53" y1="26.51" x2="2.53" y2="31.22" fill="none" stroke="#0a0a0a" stroke-miterlimit="10" />
      <line x1="4.56" y1="26.51" x2="4.56" y2="31.22" fill="none" stroke="#0a0a0a" stroke-miterlimit="10" />
      <line x1="86.99" y1="3.5" x2="86.99" y2="5.23" fill="none" stroke="#bfa613" stroke-miterlimit="10" />
      <polyline points="85.39 4.69 79.01 4.69 76.66 7.03 68.53 7.03 66.12 4.64 58.75 4.64" fill="none" stroke="#4d4d4d"
        stroke-miterlimit="10" opacity="0.5" />
      <polygon points="147 11.82 141.24 6.1 147 6.1 147 11.82" fill="#4d4d4d" opacity="0.5" />
      <g data-triangle="triangle">
        <polygon points="137.41 22.79 132.58 17.86 142.25 17.86 137.41 22.79" fill="#bfa613" />
        <line x1="142.25" y1="16.25" x2="132.58" y2="16.25" fill="none" stroke="#bfa613" stroke-miterlimit="10"
          opacity="0.75" />
      </g>
      <text data-label="label" transform="translate(95.49 4.96) scale(1.01 1)" opacity="0.75" font-size="9.92"
        fill="#4d4d4d" font-family="ISL_FADETOBLAK, ISL_FADE TO BLAK">format</text>
    </g>
    <text data-placeholder="placeholder" transform="translate(52.54 24.08) scale(1.01 1)" opacity="0.75"
      font-size="19.83" fill="#fff" font-family="ISL_FADETOBLAK, ISL_FADE TO BLAK">any</text>
  </g>
</svg>