<svg viewBox="0 0 193 39">
  <g>
    <g>
      <polygon data-name="bg"
        points="4.36 6.33 4.36 13.14 0 21.05 0 32.14 65.95 32.1 70.93 37.05 126.53 36.98 133.32 30.29 153.92 30.34 160.9 37.04 168.37 37.04 175.16 30.29 193 30.29 193 14.49 184.91 6.45 79.88 6.46 77.41 8.92 67.57 8.92 64.92 6.29 4.36 6.33"
        fill="#161616" />
      <text transform="translate(136.93 37.03) scale(1.01 1)" opacity="0.5" font-size="9.92" fill="#bfa613"
        font-family="ISL_FADETOBLAK, ISL_FADE TO BLAK">04</text>
      <g>
        <polygon points="155.39 34.61 154.17 35.83 152.95 37.04 152.95 34.61 152.95 32.17 154.17 33.39 155.39 34.61"
          fill="#4d4d4d" opacity="0.25" />
        <line x1="151.98" y1="32.11" x2="151.98" y2="37.04" fill="none" stroke="#4d4d4d" stroke-miterlimit="10"
          opacity="0.1" />
      </g>
      <g>
        <polygon points="131.58 34.55 132.8 33.33 134.02 32.11 134.02 34.55 134.02 36.98 132.8 35.77 131.58 34.55"
          fill="#4d4d4d" opacity="0.25" />
        <line x1="134.99" y1="37.04" x2="134.99" y2="32.11" fill="none" stroke="#4d4d4d" stroke-miterlimit="10"
          opacity="0.1" />
      </g>
      <g opacity="0.25">
        <line x1="6.25" y1="4.79" x2="57.83" y2="4.65" fill="none" stroke="#4d4d4d" stroke-miterlimit="10" />
        <polygon points="10.63 3.6 6.25 3.6 6.25 4.79 12.79 4.79 10.63 3.6" fill="#4d4d4d" />
      </g>
      <line x1="4.93" y1="3.6" x2="4.93" y2="5.33" fill="none" stroke="#bfa613" stroke-miterlimit="10" />
      <line x1="2.53" y1="26.51" x2="2.53" y2="31.23" fill="none" stroke="#0a0a0a" stroke-miterlimit="10" />
      <line x1="4.56" y1="26.51" x2="4.56" y2="31.23" fill="none" stroke="#0a0a0a" stroke-miterlimit="10" />
      <line x1="106.94" y1="3.5" x2="106.94" y2="5.23" fill="none" stroke="#bfa613" stroke-miterlimit="10" />
      <polyline points="85.4 4.7 79.02 4.7 76.67 7.04 68.54 7.04 66.13 4.64 58.76 4.64" fill="none" stroke="#4d4d4d"
        stroke-miterlimit="10" opacity="0.5" />
      <g opacity="0.1">
        <line x1="89.63" y1="4.7" x2="105.92" y2="4.69" fill="none" stroke="#4d4d4d" stroke-miterlimit="10" />
        <polygon points="101.54 3.5 105.92 3.5 105.92 4.69 99.38 4.69 101.54 3.5" fill="#4d4d4d" />
      </g>
      <polygon points="193 11.82 187.24 6.1 193 6.1 193 11.82" fill="#4d4d4d" opacity="0.5" />
      <g data-triangle="triangle">
        <polygon points="183.41 22.79 178.58 17.86 188.25 17.86 183.41 22.79" fill="#bfa613" />
        <line x1="188.25" y1="16.25" x2="178.58" y2="16.25" fill="none" stroke="#bfa613" stroke-miterlimit="10"
          opacity="0.75" />
      </g>
      <text data-label="label" transform="translate(116 4.96) scale(1.01 1)" opacity="0.75" font-size="9.92"
        fill="#4d4d4d" font-family="ISL_FADETOBLAK, ISL_FADE TO BLAK">poly count</text>
    </g>
    <text data-placeholder="placeholder" transform="translate(70.54 24.09) scale(1.01 1)" opacity="0.75"
      font-size="19.83" fill="#fff" font-family="ISL_FADETOBLAK, ISL_FADE TO BLAK">any</text>
  </g>
</svg>