<svg viewBox="0 0 192 39">
  <g>
    <g>
      <polygon data-name="bg"
        points="4.36 6.32 4.36 13.13 0 21.05 0 32.13 66.38 32.1 71.37 37.04 129.25 36.98 136.05 30.29 152.86 30.34 159.85 37.04 167.33 37.04 174.14 30.29 192 30.29 192 14.49 183.9 6.45 80.34 6.45 77.86 8.91 68 8.91 65.35 6.28 4.36 6.32"
        fill="#161616" />
      <text transform="translate(139.99 37.03) scale(1.01 1)" opacity="0.5" font-size="9.92" fill="#bfa613"
        font-family="ISL_FADETOBLAK, ISL_FADE TO BLAK">10</text>
      <g>
        <polygon points="154.33 34.61 153.11 35.83 151.89 37.04 151.89 34.61 151.89 32.17 153.11 33.39 154.33 34.61"
          fill="#4d4d4d" opacity="0.25" />
        <line x1="150.92" y1="32.11" x2="150.92" y2="37.04" fill="none" stroke="#4d4d4d" stroke-miterlimit="10"
          opacity="0.1" />
      </g>
      <g>
        <polygon points="134.31 34.55 135.53 33.33 136.75 32.11 136.75 34.55 136.75 36.98 135.53 35.77 134.31 34.55"
          fill="#4d4d4d" opacity="0.25" />
        <line x1="137.72" y1="37.04" x2="137.72" y2="32.11" fill="none" stroke="#4d4d4d" stroke-miterlimit="10"
          opacity="0.1" />
      </g>
      <g opacity="0.25">
        <line x1="6.26" y1="4.78" x2="57.07" y2="4.64" fill="none" stroke="#4d4d4d" stroke-miterlimit="10" />
        <polygon points="10.65 3.59 6.26 3.59 6.26 4.79 12.81 4.79 10.65 3.59" fill="#4d4d4d" />
      </g>
      <line x1="4.94" y1="3.59" x2="4.94" y2="5.32" fill="none" stroke="#bfa613" stroke-miterlimit="10" />
      <line x1="1.8" y1="26.51" x2="1.8" y2="31.22" fill="none" stroke="#0a0a0a" stroke-miterlimit="10" />
      <line x1="3.83" y1="26.51" x2="3.83" y2="31.22" fill="none" stroke="#0a0a0a" stroke-miterlimit="10" />
      <line x1="125.33" y1="3.5" x2="125.33" y2="5.23" fill="none" stroke="#bfa613" stroke-miterlimit="10" />
      <polyline points="85.86 4.69 79.47 4.69 77.11 7.03 68.97 7.03 66.56 4.64 59.18 4.64" fill="none" stroke="#4d4d4d"
        stroke-miterlimit="10" opacity="0.5" />
      <g opacity="0.1">
        <line x1="86.83" y1="4.69" x2="124.31" y2="4.69" fill="none" stroke="#4d4d4d" stroke-miterlimit="10" />
        <polygon points="119.92 3.5 124.31 3.5 124.31 4.69 117.76 4.69 119.92 3.5" fill="#4d4d4d" />
      </g>
      <polygon points="192 11.82 186.23 6.1 192 6.1 192 11.82" fill="#4d4d4d" opacity="0.5" />
      <g data-triangle="triangle">
        <polygon points="182.4 22.79 177.56 17.86 187.24 17.86 182.4 22.79" fill="#bfa613" />
        <line x1="187.24" y1="16.25" x2="177.56" y2="16.25" fill="none" stroke="#bfa613" stroke-miterlimit="10"
          opacity="0.75" />
      </g>
      <text data-label="label" transform="translate(136.7 4.96) scale(1.01 1)" opacity="0.75" font-size="9.92"
        fill="#bfa613" font-family="ISL_FADETOBLAK, ISL_FADE TO BLAK">SORT BY</text>
    </g>
    <text data-placeholder="placeholder" transform="translate(14.69 24.08) scale(1.01 1)" opacity="0.75"
      font-size="19.83" fill="#fff" font-family="ISL_FADETOBLAK, ISL_FADE TO BLAK">most recent</text>
  </g>
</svg>